<?xml version="1.0" encoding="UTF-8"?><svg xmlns="http://www.w3.org/2000/svg" xmlns:xlink="http://www.w3.org/1999/xlink" height="3000.1" preserveAspectRatio="xMidYMid meet" version="1.0" viewBox="-9.9 0.0 3367.6 3000.1" width="3367.6" zoomAndPan="magnify"><defs><clipPath id="a"><path d="M 689 0 L 3357.628906 0 L 3357.628906 3000.050781 L 689 3000.050781 Z M 689 0"/></clipPath></defs><g><g id="change1_1"><path d="M 1891.027344 813.582031 C 1900.988281 795.546875 1882.535156 776.765625 1879.398438 759.367188 C 1874.242188 759.367188 1869.074219 759.367188 1863.917969 759.367188 C 1866.367188 784.023438 1876.167969 801.316406 1891.027344 813.582031 Z M 1832.945312 801.972656 C 1838.082031 786.457031 1826.738281 757.535156 1809.710938 751.636719 C 1811.089844 774.769531 1814.46875 795.910156 1832.945312 801.972656 Z M 2955.820312 43.050781 C 2957.652344 157.167969 2927.476562 239.292969 2889.988281 314.085938 C 2811.238281 307.988281 2720.457031 289.660156 2661.558594 325.699219 C 2638.824219 321.324219 2642.179688 290.859375 2622.839844 283.113281 C 2606.542969 295.179688 2621.421875 323.339844 2630.566406 333.445312 C 2618.082031 346.765625 2586.511719 341.011719 2580.234375 360.554688 C 2590.214844 369.027344 2619.664062 364.019531 2630.566406 360.554688 C 2671.9375 420.796875 2728.914062 585.589844 2649.929688 635.472656 C 2601.171875 666.246094 2534.234375 653.378906 2498.925781 705.167969 C 2478.332031 735.359375 2477.804688 779.90625 2471.816406 829.0625 C 2440.679688 844.15625 2394.335938 833.109375 2355.667969 832.945312 C 2360.167969 851.707031 2400.796875 867.800781 2440.84375 863.917969 C 2447.246094 883.078125 2410.140625 889.175781 2409.867188 914.253906 C 2433.039062 924.414062 2447.464844 871.9375 2467.953125 879.394531 C 2489.089844 884.765625 2505.894531 911.132812 2510.539062 925.867188 C 2523.457031 966.910156 2489.398438 992.167969 2483.429688 1026.535156 C 2476.042969 1069.121094 2504.550781 1100.675781 2514.402344 1134.953125 C 2519.464844 1152.496094 2512.1875 1158.613281 2518.285156 1169.808594 C 2540.914062 1211.347656 2632.199219 1266.660156 2673.152344 1297.578125 C 2729.605469 1340.179688 2791.894531 1373.441406 2812.546875 1436.96875 C 2649.546875 1420.597656 2509.214844 1335.917969 2375.011719 1266.609375 C 2102.253906 1125.734375 1870.613281 961.320312 1643.210938 774.863281 C 1560.441406 706.980469 1486.441406 625.074219 1407.019531 550.28125 C 1381.949219 526.671875 1345.792969 503.394531 1341.199219 465.105469 C 1448.070312 451.734375 1529.769531 519.707031 1600.621094 569.640625 C 1676.101562 622.84375 1754.03125 670.617188 1829.0625 720.644531 C 1891.84375 651.546875 1943.59375 555.742188 2069.121094 569.640625 C 2122.722656 575.574219 2174.035156 629.882812 2235.640625 631.589844 C 2303.703125 633.492188 2373.832031 571.890625 2398.257812 527.054688 C 2429.664062 469.371094 2400.289062 376.03125 2406.003906 306.355469 C 2412.425781 227.859375 2455.792969 127.789062 2557.007812 135.972656 C 2629.480469 141.851562 2763.28125 265.527344 2859.015625 197.9375 C 2875.78125 186.109375 2896.703125 160.632812 2905.484375 139.855469 C 2918.894531 108.136719 2911.488281 54.792969 2948.070312 43.050781 C 2950.664062 43.050781 2953.242188 43.050781 2955.820312 43.050781" fill="#696c7f" fill-rule="evenodd"/></g><g id="change2_1"><path d="M 2247.25 1750.605469 C 2278.835938 1749.566406 2331.996094 1716.898438 2340.179688 1692.519531 C 2301.167969 1703.859375 2261.074219 1714.109375 2247.25 1750.605469 Z M 1221.160156 1495.046875 C 1177.320312 1572.21875 1285.972656 1638.4375 1337.320312 1584.109375 C 1277.722656 1593.167969 1213.042969 1554.808594 1252.140625 1502.796875 C 1275.792969 1500.640625 1310.722656 1509.746094 1317.960938 1491.175781 C 1315.601562 1460.308594 1266.292969 1461.078125 1244.402344 1471.820312 C 1232.972656 1461.097656 1227.703125 1462.199219 1225.042969 1448.589844 C 1215.269531 1398.65625 1276.152344 1397.777344 1314.09375 1417.609375 C 1278.933594 1310.246094 1136.25 1435.828125 1221.160156 1495.046875 Z M 2359.539062 1355.660156 C 2329.371094 1335.789062 2242.492188 1347.507812 2224.011719 1378.886719 C 2256.480469 1398.828125 2316.121094 1359.300781 2347.933594 1386.640625 C 2373.160156 1473.019531 2263.71875 1456.957031 2251.105469 1518.277344 C 2292.699219 1530.328125 2389.136719 1503.878906 2394.386719 1557 C 2400.046875 1614.347656 2280.496094 1622.679688 2262.734375 1677.039062 C 2317.761719 1657.179688 2424.617188 1615.25 2413.75 1545.386719 C 2407.347656 1504.308594 2358.742188 1500.800781 2316.941406 1487.308594 C 2367.4375 1478.660156 2412.90625 1390.820312 2359.539062 1355.660156 Z M 2038.152344 1355.660156 C 2035.8125 1332.1875 2014.003906 1328.199219 1991.691406 1324.6875 C 1989.722656 1350.777344 2020.851562 1361.40625 2038.152344 1355.660156 Z M 2030.414062 1313.066406 C 2040.371094 1324.816406 2060.34375 1343.617188 2076.875 1336.296875 C 2078.78125 1311.6875 2038.832031 1280.226562 2030.414062 1313.066406 Z M 1379.914062 1328.558594 C 1427.703125 1353.167969 1527.933594 1346.886719 1507.691406 1266.609375 C 1471.980469 1218.25 1354.472656 1256.988281 1379.914062 1328.558594 Z M 1209.550781 1274.347656 C 1247.691406 1277.46875 1259.542969 1219.667969 1236.652344 1196.90625 C 1178.453125 1185.328125 1176.761719 1256.769531 1209.550781 1274.347656 Z M 1817.453125 1247.238281 C 1834.703125 1308.589844 1926.390625 1238.828125 1871.660156 1193.039062 C 1830.472656 1174.058594 1810.152344 1221.289062 1817.453125 1247.238281 Z M 1294.730469 836.808594 C 1258.191406 844.601562 1280.070312 906.132812 1271.5 933.617188 C 1298.589844 941.859375 1325.910156 918.910156 1348.941406 910.378906 C 1354.441406 877.398438 1323.101562 830.757812 1294.730469 836.808594 Z M 1232.78125 1014.917969 C 1216.730469 938.4375 1173.941406 821.160156 1186.3125 712.910156 C 1190.390625 677.285156 1212.664062 620.902344 1244.402344 619.980469 C 1284.679688 618.808594 1325.921875 701.15625 1345.070312 732.269531 C 1375.550781 781.78125 1396.550781 820.976562 1426.382812 860.046875 C 1435.703125 871.429688 1409.800781 874.691406 1422.511719 891.015625 C 1510.929688 889.5625 1614.160156 871.59375 1701.292969 856.171875 C 1918.652344 1036.335938 2158.851562 1193.667969 2425.355469 1324.6875 C 2503.929688 1680.308594 2590.214844 2085.097656 2564.761719 2532.75 C 2563.039062 2562.929688 2549.320312 2595.898438 2564.761719 2625.671875 C 2648.914062 2616.769531 2705.851562 2572.46875 2773.839844 2540.488281 C 2872.84375 2493.929688 2970.921875 2453.789062 3079.726562 2412.71875 C 3156.144531 2383.859375 3222.863281 2347.941406 3319.792969 2350.761719 C 3343.113281 2387.898438 3306.914062 2459.019531 3277.195312 2497.898438 C 3234.679688 2553.550781 3154.546875 2595.179688 3075.847656 2637.289062 C 2934.25 2713.070312 2766.253906 2755.921875 2560.867188 2718.609375 C 2558.035156 2622.0625 2525.527344 2555.199219 2498.925781 2482.410156 C 2489.59375 2537.871094 2524.195312 2603.640625 2529.894531 2672.140625 C 2536.929688 2756.550781 2525.21875 2810.621094 2568.617188 2861.871094 C 2587.425781 2884.070312 2614.027344 2887.109375 2611.21875 2923.820312 C 2575.347656 2964.191406 2493.984375 2939.191406 2440.84375 2931.558594 C 2431.511719 2927.988281 2434.6875 2911.898438 2425.355469 2908.328125 C 2280.578125 2969.980469 2203.398438 2832.570312 2216.277344 2676.011719 C 2187.359375 2678.078125 2194.785156 2716.492188 2193.042969 2745.707031 C 2135.796875 2668.917969 2080.132812 2583.398438 2038.152344 2486.289062 C 1995.613281 2387.867188 1989.621094 2271.589844 1952.972656 2161.027344 C 1950.0625 2144.800781 1967.761719 2166.289062 1968.460938 2149.417969 C 1949.152344 2123.117188 1919.164062 2059.238281 1875.53125 2056.5 C 1846.082031 2054.628906 1822.933594 2088.398438 1794.222656 2087.46875 C 1732.792969 2085.480469 1678.554688 1981.46875 1619.984375 1971.308594 C 1590.222656 1966.148438 1571.191406 1987.910156 1530.921875 1982.929688 C 1471.921875 1924.519531 1550.550781 1861.109375 1612.230469 1866.769531 C 1662.332031 1871.347656 1685.671875 1926.488281 1720.652344 1932.585938 C 1765.582031 1940.429688 1797.160156 1898.949219 1829.074219 1893.867188 C 1899.492188 1882.636719 1923.632812 1946.207031 1952.972656 1971.308594 C 1983.613281 1976.820312 2011.671875 1984.878906 2049.773438 1982.929688 C 2041.25 1951.429688 1996.484375 1956.1875 1964.59375 1948.078125 C 1934.992188 1913.136719 1909.535156 1874.070312 1852.300781 1866.769531 C 1781.800781 1763.488281 1688.640625 1672.289062 1499.953125 1696.386719 C 1454.882812 1702.160156 1404.882812 1723.117188 1364.421875 1742.859375 C 1310.230469 1769.289062 1255.101562 1837.847656 1225.042969 1897.738281 C 1085.691406 2175.328125 1136.550781 2689.679688 1356.679688 2830.890625 C 1330.933594 2865.757812 1293.722656 2943.550781 1244.402344 2954.800781 C 1106.570312 2986.21875 1172.53125 2768.230469 1236.652344 2741.832031 C 1118.132812 2595.730469 1043.472656 2375.058594 1058.539062 2102.949219 C 1061.441406 2050.5 1077.730469 2007.75 1077.902344 1959.6875 C 1059.292969 1968.179688 1058.433594 1994.429688 1050.800781 2013.898438 C 1006.710938 1966.597656 969.355469 1944.390625 915.273438 1986.789062 C 902.15625 1997.089844 885.445312 2021.417969 861.070312 2025.519531 C 804.617188 2035 717.078125 1964.476562 729.421875 1897.738281 C 733.605469 1875.089844 753.183594 1860.277344 772.011719 1859.019531 C 806.710938 1856.699219 816.742188 1896.828125 853.324219 1897.738281 C 898.882812 1898.871094 906.457031 1863.398438 930.765625 1828.039062 C 963.132812 1818.378906 1000.210938 1798.347656 1035.3125 1808.6875 C 1065.203125 1817.488281 1069.101562 1871.097656 1105 1866.769531 C 1090.042969 1817.1875 1043.761719 1765.398438 1027.558594 1704.136719 C 1031.882812 1694.257812 1057.511719 1705.6875 1062.410156 1696.386719 C 990.527344 1644.328125 899.929688 1590.476562 899.789062 1479.558594 C 939.402344 1458.179688 967.378906 1501.15625 1004.332031 1506.667969 C 982.914062 1463.4375 910.570312 1417.308594 923.019531 1340.167969 C 957.746094 1346.75 977.839844 1367.957031 1000.460938 1386.640625 C 1043.5625 1337.820312 1046.550781 1268.808594 1074.03125 1212.398438 C 1111.878906 1134.679688 1172.273438 1070 1217.292969 1003.304688 C 1224.121094 996.136719 1229.28125 1004.308594 1232.78125 1011.046875 C 1232.78125 1012.335938 1232.78125 1013.628906 1232.78125 1014.917969" fill="#ddd" fill-rule="evenodd"/></g><g id="change3_1"><path d="M 1809.71875 751.628906 C 1826.726562 757.53125 1838.078125 786.445312 1832.945312 801.960938 C 1814.476562 795.921875 1811.097656 774.773438 1809.71875 751.628906" fill="inherit" fill-rule="evenodd"/></g><g id="change3_2"><path d="M 1863.914062 759.371094 C 1869.085938 759.371094 1874.238281 759.371094 1879.40625 759.371094 C 1882.542969 776.773438 1900.976562 795.539062 1891.023438 813.574219 C 1876.175781 801.324219 1866.375 784.019531 1863.914062 759.371094" fill="inherit" fill-rule="evenodd"/></g><g id="change3_3"><path d="M 1298.605469 902.628906 C 1310.785156 904.492188 1313.742188 897.117188 1321.835938 894.882812 C 1322.054688 876.597656 1307.703125 872.882812 1298.605469 863.914062 C 1298.605469 876.824219 1298.605469 889.71875 1298.605469 902.628906 Z M 1348.945312 910.375 C 1325.914062 918.90625 1298.59375 941.847656 1271.503906 933.609375 C 1280.074219 906.128906 1258.195312 844.601562 1294.734375 836.804688 C 1323.105469 830.75 1354.441406 877.394531 1348.945312 910.375" fill="inherit" fill-rule="evenodd"/></g><g id="change4_1"><path d="M 1298.597656 863.917969 C 1307.699219 872.894531 1322.042969 876.605469 1321.832031 894.898438 C 1313.734375 897.128906 1310.773438 904.492188 1298.597656 902.644531 C 1298.597656 889.734375 1298.597656 876.828125 1298.597656 863.917969" fill="#f99" fill-rule="evenodd"/></g><g id="change2_2"><path d="M 2545.382812 956.847656 C 2596.984375 977.523438 2657.632812 989.152344 2700.257812 1018.804688 C 2666.183594 1081.523438 2603.015625 1115.152344 2549.257812 1158.191406 C 2551.3125 1138.066406 2544.140625 1127.164062 2541.507812 1111.726562 C 2590.0625 1101.140625 2615.273438 1001.777344 2522.15625 1022.664062 C 2527.34375 998.179688 2549.292969 990.429688 2545.382812 956.847656" fill="#ddd" fill-rule="evenodd"/></g><g id="change4_2"><path d="M 2514.421875 1034.28125 C 2521.800781 1048.851562 2550.53125 1042.039062 2564.757812 1049.78125 C 2560.789062 1071.621094 2542.679688 1079.332031 2529.902344 1092.359375 C 2521.140625 1076.609375 2512.125 1061.09375 2514.421875 1034.28125" fill="#f99" fill-rule="evenodd"/></g><g id="change3_4"><path d="M 1871.652344 1193.042969 C 1926.382812 1238.839844 1834.695312 1308.589844 1817.441406 1247.242188 C 1810.136719 1221.300781 1830.464844 1174.0625 1871.652344 1193.042969" fill="inherit" fill-rule="evenodd"/></g><g id="change3_5"><path d="M 1236.652344 1196.902344 C 1259.542969 1219.65625 1247.699219 1277.460938 1209.554688 1274.34375 C 1176.765625 1256.765625 1178.460938 1185.320312 1236.652344 1196.902344" fill="inherit" fill-rule="evenodd"/></g><g id="change3_6"><path d="M 1399.28125 1313.066406 C 1432.078125 1320.773438 1488.722656 1320.324219 1488.328125 1282.085938 C 1466.378906 1250.429688 1399.554688 1275.179688 1399.28125 1313.066406 Z M 1507.6875 1266.609375 C 1527.933594 1346.886719 1427.703125 1353.171875 1379.914062 1328.554688 C 1354.476562 1256.988281 1471.988281 1218.25 1507.6875 1266.609375" fill="inherit" fill-rule="evenodd"/></g><g id="change4_3"><path d="M 1488.332031 1282.089844 C 1488.726562 1320.324219 1432.074219 1320.761719 1399.28125 1313.066406 C 1399.550781 1275.175781 1466.390625 1250.425781 1488.332031 1282.089844" fill="#f99" fill-rule="evenodd"/></g><g id="change3_7"><path d="M 2076.886719 1336.292969 C 2060.347656 1343.613281 2040.375 1324.816406 2030.414062 1313.070312 C 2038.832031 1280.230469 2078.789062 1311.679688 2076.886719 1336.292969" fill="inherit" fill-rule="evenodd"/></g><g id="change3_8"><path d="M 1991.6875 1324.6875 C 2014.007812 1328.203125 2035.8125 1332.191406 2038.152344 1355.660156 C 2020.847656 1361.414062 1989.722656 1350.773438 1991.6875 1324.6875" fill="inherit" fill-rule="evenodd"/></g><g id="change3_9"><path d="M 2316.945312 1487.308594 C 2358.730469 1500.796875 2407.339844 1504.308594 2413.75 1545.386719 C 2424.625 1615.246094 2317.777344 1657.179688 2262.742188 1677.039062 C 2280.5 1622.675781 2400.050781 1614.347656 2394.382812 1556.996094 C 2389.148438 1503.878906 2292.699219 1530.328125 2251.109375 1518.277344 C 2263.707031 1456.960938 2373.15625 1473.011719 2347.929688 1386.632812 C 2316.125 1359.292969 2256.476562 1398.832031 2224.019531 1378.882812 C 2242.480469 1347.511719 2329.367188 1335.789062 2359.53125 1355.664062 C 2412.917969 1390.8125 2367.445312 1478.648438 2316.945312 1487.308594" fill="inherit" fill-rule="evenodd"/></g><g id="change3_10"><path d="M 1314.097656 1417.605469 C 1276.15625 1397.773438 1215.269531 1398.652344 1225.046875 1448.582031 C 1227.699219 1462.191406 1232.976562 1461.09375 1244.402344 1471.8125 C 1266.296875 1461.074219 1315.601562 1460.304688 1317.964844 1491.179688 C 1310.730469 1509.746094 1275.792969 1500.632812 1252.144531 1502.800781 C 1213.042969 1554.8125 1277.71875 1593.167969 1337.320312 1584.109375 C 1285.972656 1638.441406 1177.328125 1572.21875 1221.160156 1495.046875 C 1136.253906 1435.828125 1278.933594 1310.246094 1314.097656 1417.605469" fill="inherit" fill-rule="evenodd"/></g><g id="change5_1"><path d="M 497.101562 1386.640625 C 507.765625 1405.660156 507.308594 1435.800781 512.589844 1460.199219 C 533.136719 1470.179688 553.03125 1457.101562 578.410156 1460.199219 C 563.949219 1476.71875 529.445312 1473.191406 528.078125 1502.800781 C 551.875 1507.390625 548.773438 1538.890625 562.921875 1553.128906 C 540.710938 1550.460938 503.117188 1528.128906 500.972656 1502.800781 C 477.519531 1510.320312 458.695312 1522.46875 431.273438 1526.03125 C 437.355469 1507.589844 448.246094 1493.960938 454.511719 1475.691406 C 452.46875 1454.5 426.835938 1456.898438 408.042969 1452.460938 C 418.867188 1436.179688 458.394531 1448.601562 481.613281 1444.71875 C 495.675781 1434.25 492.703125 1406.761719 497.101562 1386.640625" fill="#ffda00" fill-rule="evenodd"/></g><g id="change3_11"><path d="M 489.351562 1812.550781 C 518.710938 1791.578125 522.292969 1744.820312 582.285156 1754.46875 C 573.515625 1736.140625 560.25 1722.300781 547.433594 1708.011719 C 527.273438 1778.078125 435.414062 1718.730469 408.042969 1708.011719 C 435.4375 1742.570312 456.195312 1783.761719 489.351562 1812.550781 Z M 562.921875 1793.199219 C 528.0625 1809.699219 523.449219 1852.179688 493.226562 1855.148438 C 451.203125 1859.261719 397.953125 1754 369.324219 1715.761719 C 353.460938 1694.570312 302.5625 1658.449219 346.089844 1642.191406 C 401.097656 1621.648438 455.136719 1707.75 497.101562 1704.140625 C 515.3125 1702.578125 514.386719 1675.269531 543.5625 1673.171875 C 567.761719 1671.421875 583 1696.449219 597.773438 1715.761719 C 605.855469 1726.320312 638.414062 1758.710938 636.488281 1773.839844 C 632.730469 1803.429688 597.472656 1798.339844 562.921875 1793.199219" fill="inherit" fill-rule="evenodd"/></g><g id="change3_12"><path d="M 2340.175781 1692.515625 C 2332.003906 1716.898438 2278.828125 1749.566406 2247.242188 1750.609375 C 2261.082031 1714.105469 2301.179688 1703.855469 2340.175781 1692.515625" fill="inherit" fill-rule="evenodd"/></g><g id="change6_1"><path d="M 1821.324219 1870.625 C 1774.648438 1880.855469 1775.300781 1908.808594 1736.148438 1905.488281 C 1708.476562 1903.125 1669.230469 1847.277344 1627.730469 1839.65625 C 1557.320312 1826.738281 1487.839844 1878.566406 1480.601562 1924.847656 C 1474.867188 1961.355469 1490.949219 2007.1875 1527.046875 2013.894531 C 1550.984375 2018.347656 1579.109375 1995.136719 1608.367188 1998.417969 C 1669.925781 2005.285156 1721.492188 2116.296875 1794.226562 2118.4375 C 1823.484375 2119.308594 1844.058594 2098.289062 1871.664062 2087.46875 C 1894.519531 2095.578125 1902.347656 2118.738281 1921.992188 2130.058594 C 1964.050781 2253.328125 1964.347656 2386.699219 2011.058594 2497.898438 C 2056.746094 2606.667969 2115.289062 2699.46875 2173.6875 2788.300781 C 2125.640625 2817.179688 2061.320312 2819.058594 1999.445312 2827.019531 C 1813.613281 2850.917969 1597.179688 2848.578125 1403.148438 2823.148438 C 1132.632812 2692.679688 1105.105469 2017.316406 1325.714844 1804.804688 C 1360.820312 1770.976562 1454.542969 1728.6875 1515.445312 1723.496094 C 1671.523438 1710.195312 1761.714844 1778.636719 1821.324219 1870.625" fill="#efefef" fill-rule="evenodd"/></g><g id="change3_13"><path d="M 117.644531 1808.691406 C 123.839844 1870.378906 89.109375 1891.148438 55.691406 1913.230469 C 83.453125 1922.898438 135.996094 1907.78125 156.363281 1924.851562 C 146.277344 1937.601562 151.773438 1977.390625 156.363281 1998.421875 C 168.328125 1966.488281 181.59375 1935.878906 202.828125 1913.230469 C 218.726562 1908.480469 243.597656 1912.691406 257.035156 1905.488281 C 242.144531 1898.441406 217.386719 1901.25 214.441406 1882.25 C 217.3125 1867.761719 227.496094 1835.398438 229.929688 1824.171875 C 193.253906 1850.269531 143.210938 1827.621094 117.644531 1808.691406 Z M 276.394531 1785.449219 C 289.902344 1817.808594 260.855469 1839.03125 253.164062 1862.890625 C 271.394531 1885.089844 311.347656 1880.28125 315.113281 1909.359375 C 320.410156 1950.210938 268.863281 1949.769531 214.441406 1948.078125 C 188.558594 1971.558594 186.734375 2054.890625 152.492188 2056.5 C 119.3125 2058.050781 122.054688 2005.808594 121.515625 1959.691406 C 82.453125 1943.640625 11.742188 1963.96875 1.484375 1928.710938 C -9.925781 1889.511719 47.285156 1873.960938 75.054688 1855.148438 C 87.054688 1808.339844 74.910156 1749.519531 109.902344 1746.730469 C 136.285156 1744.628906 147.1875 1795.378906 175.726562 1800.941406 C 215.707031 1808.738281 235.703125 1772.140625 276.394531 1785.449219" fill="inherit" fill-rule="evenodd"/></g><g id="change3_14"><path d="M 369.324219 2033.261719 C 396.050781 2062.03125 449.65625 2063.921875 489.351562 2079.71875 C 489.351562 2068.109375 489.351562 2056.5 489.351562 2044.871094 C 502.148438 2030.570312 523.648438 2024.960938 535.816406 2010.03125 C 515.984375 2001.46875 499.734375 1989.320312 477.738281 1982.929688 C 471.839844 2029.941406 411.460938 2022.480469 369.324219 2033.261719 Z M 524.203125 2060.359375 C 521.800781 2085.199219 533.15625 2121.199219 504.84375 2130.058594 C 487.585938 2135.460938 472.710938 2116.359375 458.378906 2110.699219 C 415.339844 2093.710938 307.691406 2076.28125 307.371094 2037.128906 C 306.988281 1990.378906 392.777344 2001.910156 431.273438 1982.929688 C 415.503906 1888.519531 594.140625 1988.449219 593.898438 2013.898438 C 593.59375 2046.019531 548.410156 2039.480469 524.203125 2060.359375" fill="inherit" fill-rule="evenodd"/></g><g id="change5_2"><path d="M 477.738281 1982.929688 C 499.734375 1989.320312 515.984375 2001.46875 535.816406 2010.03125 C 523.648438 2024.960938 502.148438 2030.570312 489.351562 2044.871094 C 489.351562 2056.5 489.351562 2068.109375 489.351562 2079.71875 C 449.65625 2063.921875 396.050781 2062.03125 369.324219 2033.261719 C 411.460938 2022.480469 471.839844 2029.941406 477.738281 1982.929688" fill="#ffda00" fill-rule="evenodd"/></g><g id="change3_15"><path d="M 179.59375 2250.089844 C 202.777344 2271.148438 263.441406 2274.480469 268.652344 2304.300781 C 272.898438 2328.621094 243.703125 2335.78125 237.675781 2362.378906 C 270.273438 2356.128906 284.574219 2316.101562 318.988281 2312.050781 C 343.707031 2309.128906 364.734375 2331.339844 392.554688 2323.660156 C 379.097656 2306.140625 349.484375 2304.78125 342.21875 2281.070312 C 356.261719 2256.390625 377.589844 2239 388.683594 2211.371094 C 353.34375 2210.890625 318.023438 2210.410156 303.5 2230.738281 C 273.382812 2233.738281 279.789062 2200.230469 264.78125 2188.140625 C 251.910156 2227.828125 232.269531 2260.121094 179.59375 2250.089844 Z M 307.371094 2180.398438 C 340.304688 2177.460938 401.089844 2168.921875 427.402344 2184.269531 C 425.894531 2225.351562 407.238281 2249.289062 388.683594 2273.320312 C 401.902344 2302.699219 441.617188 2305.570312 439.019531 2350.761719 C 406.398438 2381.128906 362.859375 2343.640625 330.601562 2346.890625 C 284.625 2351.53125 265.953125 2420.121094 206.703125 2412.71875 C 178.632812 2384.148438 208.324219 2334.980469 226.0625 2315.910156 C 191.265625 2285.730469 110.519531 2282.339844 121.515625 2219.109375 C 133.789062 2202.941406 184.28125 2204.511719 206.703125 2211.371094 C 223.695312 2170.839844 279.503906 2112.730469 307.371094 2180.398438" fill="inherit" fill-rule="evenodd"/></g><g id="change5_3"><path d="M 264.78125 2188.140625 C 279.789062 2200.230469 273.382812 2233.738281 303.5 2230.738281 C 318.023438 2210.410156 353.34375 2210.890625 388.683594 2211.371094 C 377.589844 2239 356.261719 2256.390625 342.21875 2281.070312 C 349.484375 2304.78125 379.097656 2306.140625 392.554688 2323.660156 C 364.734375 2331.339844 343.707031 2309.128906 318.988281 2312.050781 C 284.574219 2316.101562 270.273438 2356.128906 237.675781 2362.378906 C 243.703125 2335.78125 272.898438 2328.621094 268.652344 2304.300781 C 263.441406 2274.480469 202.777344 2271.148438 179.59375 2250.089844 C 232.269531 2260.121094 251.910156 2227.828125 264.78125 2188.140625" fill="#ffda00" fill-rule="evenodd"/></g><g clip-path="url(#a)" id="change3_17"><path d="M 1515.441406 1723.5 C 1454.542969 1728.6875 1360.824219 1770.980469 1325.710938 1804.808594 C 1105.101562 2017.316406 1132.632812 2692.679688 1403.152344 2823.148438 C 1597.171875 2848.578125 1813.613281 2850.917969 1999.441406 2827.019531 C 2061.320312 2819.058594 2125.632812 2817.179688 2173.6875 2788.300781 C 2115.289062 2699.46875 2056.742188 2606.667969 2011.050781 2497.898438 C 1964.34375 2386.699219 1964.042969 2253.328125 1921.992188 2130.058594 C 1902.34375 2118.738281 1894.523438 2095.578125 1871.664062 2087.46875 C 1844.050781 2098.289062 1823.480469 2119.308594 1794.222656 2118.4375 C 1721.492188 2116.300781 1669.921875 2005.289062 1608.363281 1998.417969 C 1579.101562 1995.140625 1550.984375 2018.347656 1527.054688 2013.898438 C 1490.941406 2007.1875 1474.863281 1961.359375 1480.59375 1924.847656 C 1487.839844 1878.570312 1557.324219 1826.738281 1627.722656 1839.65625 C 1669.222656 1847.28125 1708.472656 1903.128906 1736.144531 1905.488281 C 1775.292969 1908.808594 1774.640625 1880.859375 1821.324219 1870.628906 C 1761.710938 1778.636719 1671.523438 1710.199219 1515.441406 1723.5 Z M 2529.902344 1092.367188 C 2542.675781 1079.328125 2560.800781 1071.628906 2564.757812 1049.777344 C 2550.542969 1042.046875 2521.789062 1048.847656 2514.414062 1034.289062 C 2512.125 1061.097656 2521.128906 1076.617188 2529.902344 1092.367188 Z M 2522.160156 1022.667969 C 2615.265625 1001.765625 2590.074219 1101.128906 2541.519531 1111.71875 C 2544.15625 1127.15625 2551.304688 1138.066406 2549.265625 1158.1875 C 2603.027344 1115.148438 2666.183594 1081.515625 2700.253906 1018.796875 C 2657.636719 989.144531 2596.992188 977.519531 2545.375 956.84375 C 2549.285156 990.425781 2527.347656 998.171875 2522.160156 1022.667969 Z M 1232.78125 1011.046875 C 1229.28125 1004.304688 1224.121094 996.140625 1217.292969 1003.308594 C 1172.273438 1070 1111.882812 1134.679688 1074.03125 1212.398438 C 1046.550781 1268.808594 1043.5625 1337.816406 1000.460938 1386.640625 C 977.835938 1367.957031 957.746094 1346.746094 923.019531 1340.167969 C 910.570312 1417.308594 982.914062 1463.4375 1004.332031 1506.667969 C 967.382812 1501.15625 939.402344 1458.179688 899.785156 1479.558594 C 899.933594 1590.476562 990.527344 1644.328125 1062.410156 1696.390625 C 1057.511719 1705.6875 1031.878906 1694.257812 1027.5625 1704.136719 C 1043.761719 1765.398438 1090.042969 1817.1875 1105.003906 1866.769531 C 1069.101562 1871.097656 1065.199219 1817.488281 1035.3125 1808.6875 C 1000.210938 1798.347656 963.132812 1818.378906 930.765625 1828.039062 C 906.457031 1863.398438 898.882812 1898.867188 853.324219 1897.738281 C 816.742188 1896.828125 806.710938 1856.699219 772.011719 1859.019531 C 753.183594 1860.277344 733.609375 1875.085938 729.421875 1897.738281 C 717.078125 1964.476562 804.617188 2035 861.070312 2025.519531 C 885.449219 2021.417969 902.152344 1997.089844 915.273438 1986.789062 C 969.355469 1944.386719 1006.710938 1966.597656 1050.800781 2013.898438 C 1058.433594 1994.429688 1059.292969 1968.179688 1077.902344 1959.6875 C 1077.730469 2007.75 1061.441406 2050.5 1058.542969 2102.949219 C 1043.472656 2375.058594 1118.132812 2595.730469 1236.652344 2741.828125 C 1172.53125 2768.230469 1106.570312 2986.21875 1244.402344 2954.800781 C 1293.722656 2943.550781 1330.933594 2865.757812 1356.683594 2830.890625 C 1136.550781 2689.679688 1085.691406 2175.328125 1225.042969 1897.738281 C 1255.101562 1837.847656 1310.230469 1769.289062 1364.421875 1742.859375 C 1404.882812 1723.117188 1454.882812 1702.160156 1499.949219 1696.390625 C 1688.640625 1672.289062 1781.800781 1763.488281 1852.300781 1866.769531 C 1909.535156 1874.066406 1934.992188 1913.136719 1964.59375 1948.078125 C 1996.484375 1956.1875 2041.253906 1951.429688 2049.773438 1982.929688 C 2011.671875 1984.878906 1983.613281 1976.820312 1952.972656 1971.308594 C 1923.632812 1946.210938 1899.492188 1882.640625 1829.074219 1893.867188 C 1797.164062 1898.949219 1765.582031 1940.429688 1720.652344 1932.589844 C 1685.671875 1926.488281 1662.332031 1871.347656 1612.234375 1866.769531 C 1550.550781 1861.105469 1471.921875 1924.519531 1530.921875 1982.929688 C 1571.191406 1987.910156 1590.222656 1966.148438 1619.980469 1971.308594 C 1678.554688 1981.46875 1732.792969 2085.480469 1794.222656 2087.46875 C 1822.933594 2088.398438 1846.082031 2054.628906 1875.53125 2056.5 C 1919.164062 2059.238281 1949.152344 2123.117188 1968.460938 2149.417969 C 1967.761719 2166.289062 1950.0625 2144.796875 1952.972656 2161.03125 C 1989.621094 2271.589844 1995.613281 2387.871094 2038.152344 2486.289062 C 2080.148438 2583.398438 2135.785156 2668.921875 2193.03125 2745.710938 C 2194.800781 2716.488281 2187.367188 2678.082031 2216.265625 2676.011719 C 2203.390625 2832.570312 2280.574219 2969.980469 2425.34375 2908.328125 C 2434.695312 2911.898438 2431.503906 2927.988281 2440.835938 2931.558594 C 2494 2939.191406 2575.34375 2964.191406 2611.207031 2923.820312 C 2614.027344 2887.109375 2587.4375 2884.070312 2568.628906 2861.871094 C 2525.207031 2810.621094 2536.925781 2756.550781 2529.902344 2672.140625 C 2524.199219 2603.636719 2489.613281 2537.867188 2498.921875 2482.410156 C 2525.515625 2555.199219 2558.042969 2622.058594 2560.863281 2718.609375 C 2766.234375 2755.917969 2934.257812 2713.070312 3075.855469 2637.289062 C 3154.542969 2595.179688 3234.671875 2553.550781 3277.1875 2497.898438 C 3306.910156 2459.019531 3343.125 2387.898438 3319.785156 2350.757812 C 3222.867188 2347.9375 3156.148438 2383.859375 3079.726562 2412.71875 C 2970.921875 2453.789062 2872.832031 2493.929688 2773.835938 2540.488281 C 2705.859375 2572.46875 2648.921875 2616.769531 2564.757812 2625.667969 C 2549.328125 2595.898438 2563.027344 2562.929688 2564.757812 2532.75 C 2590.214844 2085.097656 2503.929688 1680.308594 2425.34375 1324.6875 C 2158.855469 1193.667969 1918.652344 1036.335938 1701.292969 856.167969 C 1614.164062 871.597656 1510.933594 889.578125 1422.511719 891.019531 C 1409.800781 874.6875 1435.703125 871.433594 1426.382812 860.039062 C 1396.550781 820.984375 1375.550781 781.785156 1345.070312 732.265625 C 1325.921875 701.164062 1284.679688 618.808594 1244.402344 619.980469 C 1212.660156 620.886719 1190.390625 677.289062 1186.3125 712.902344 C 1173.941406 821.171875 1216.730469 938.441406 1232.78125 1014.917969 C 1232.78125 1013.628906 1232.78125 1012.339844 1232.78125 1011.046875 Z M 2948.078125 43.050781 C 2911.496094 54.792969 2918.890625 108.144531 2905.480469 139.84375 C 2896.707031 160.628906 2875.777344 186.089844 2859.03125 197.933594 C 2763.289062 265.519531 2629.476562 141.84375 2557.011719 135.972656 C 2455.808594 127.773438 2412.429688 227.863281 2406 306.34375 C 2400.273438 376.03125 2429.667969 469.363281 2398.257812 527.0625 C 2373.828125 571.882812 2303.707031 633.496094 2235.628906 631.601562 C 2174.039062 629.871094 2122.726562 575.570312 2069.128906 569.640625 C 1943.601562 555.734375 1891.84375 651.539062 1829.074219 720.648438 C 1754.03125 670.613281 1676.101562 622.84375 1600.621094 569.640625 C 1529.773438 519.707031 1448.070312 451.730469 1341.203125 465.101562 C 1345.792969 503.394531 1381.949219 526.667969 1407.023438 550.277344 C 1486.441406 625.070312 1560.441406 706.992188 1643.210938 774.863281 C 1870.621094 961.328125 2102.25 1125.726562 2375.019531 1266.609375 C 2509.222656 1335.917969 2649.542969 1420.597656 2812.558594 1436.96875 C 2791.898438 1373.4375 2729.609375 1340.179688 2673.167969 1297.578125 C 2632.195312 1266.660156 2540.921875 1211.347656 2518.285156 1169.796875 C 2512.1875 1158.609375 2519.460938 1152.5 2514.414062 1134.957031 C 2504.546875 1100.667969 2476.039062 1069.117188 2483.433594 1026.535156 C 2489.40625 992.171875 2523.457031 966.910156 2510.539062 925.875 C 2505.90625 911.125 2489.097656 884.757812 2467.960938 879.402344 C 2447.46875 871.925781 2433.046875 924.410156 2409.875 914.257812 C 2410.140625 889.167969 2447.261719 883.070312 2440.835938 863.914062 C 2400.789062 867.785156 2360.167969 851.699219 2355.65625 832.933594 C 2394.34375 833.097656 2440.667969 844.160156 2471.816406 829.058594 C 2477.808594 779.910156 2478.324219 735.355469 2498.921875 705.160156 C 2534.230469 653.371094 2601.175781 666.246094 2649.933594 635.472656 C 2728.929688 585.601562 2671.933594 420.792969 2630.570312 360.5625 C 2619.671875 364.023438 2590.214844 369.027344 2580.226562 360.5625 C 2586.507812 341.011719 2618.085938 346.78125 2630.570312 333.453125 C 2621.425781 323.339844 2606.550781 295.179688 2622.824219 283.109375 C 2642.1875 290.855469 2638.828125 321.320312 2661.550781 325.707031 C 2720.464844 289.660156 2811.242188 307.992188 2889.992188 314.089844 C 2927.480469 239.273438 2957.65625 157.167969 2955.824219 43.050781 C 2953.25 43.050781 2950.65625 43.050781 2948.078125 43.050781 Z M 2677.039062 360.5625 C 2725.386719 439.722656 2762.855469 620.414062 2665.421875 674.175781 C 2620.765625 698.835938 2558.164062 693.5 2533.777344 728.394531 C 2513.28125 757.726562 2523.414062 816.617188 2506.667969 844.550781 C 2526.628906 868.484375 2539.296875 899.691406 2560.863281 922 C 2629.148438 943.585938 2743.429688 948.753906 2746.726562 1018.796875 C 2750.085938 1089.835938 2622.949219 1134.917969 2595.714844 1185.289062 C 2630.632812 1222.308594 2681.285156 1250.820312 2731.234375 1289.835938 C 2777.234375 1325.75 2848.917969 1375.757812 2843.539062 1456.328125 C 2788.191406 1505.957031 2704.828125 1461.957031 2649.933594 1440.847656 C 2585.335938 1416.007812 2522.671875 1389.457031 2471.816406 1363.398438 C 2513.960938 1521.007812 2549.945312 1700.007812 2576.355469 1893.867188 C 2605.046875 2104.328125 2618.953125 2364.917969 2595.714844 2579.207031 C 2738.917969 2512.96875 2896.789062 2437.417969 3064.234375 2373.988281 C 3147.125 2342.601562 3219.015625 2303.839844 3331.402344 2319.789062 C 3425.394531 2451.890625 3243.609375 2583.699219 3149.433594 2637.289062 C 2998.773438 2723.007812 2822.261719 2802.199219 2572.5 2765.070312 C 2561.730469 2845.878906 2674.011719 2845.828125 2657.679688 2935.441406 C 2642.414062 3019.171875 2470.847656 3000.550781 2409.875 2958.667969 C 2298.910156 2995.601562 2219.273438 2915.78125 2193.03125 2830.890625 C 1983.242188 2902.949219 1631.171875 2906.507812 1395.402344 2854.121094 C 1348.941406 2904.039062 1324.074219 2974.191406 1263.75 2993.519531 C 1195.890625 3015.261719 1131.121094 2980.71875 1120.492188 2919.949219 C 1112.300781 2873.121094 1131.351562 2824.128906 1143.722656 2796.039062 C 1152.511719 2776.078125 1185.863281 2748.890625 1186.3125 2737.960938 C 1186.753906 2727.550781 1114.300781 2634.871094 1105.003906 2617.929688 C 1026.203125 2474.308594 999.640625 2260.640625 1027.5625 2056.5 C 1011.269531 2034.070312 993.441406 2013.167969 969.484375 1998.417969 C 927.507812 2011.230469 921.097656 2052.347656 880.425781 2064.238281 C 758.714844 2099.808594 606.359375 1903.597656 744.910156 1820.300781 C 803.988281 1810.265625 825.824219 1837.46875 857.195312 1855.148438 C 901.542969 1820.769531 919.957031 1760.4375 1012.082031 1773.839844 C 1012.382812 1757.96875 994.9375 1726.5 992.71875 1700.269531 C 936.078125 1659.148438 772.878906 1492.417969 903.660156 1433.097656 C 836.921875 1361.039062 908.175781 1249.105469 992.71875 1328.558594 C 1026.492188 1179.058594 1109.492188 1078.765625 1194.0625 980.074219 C 1146.402344 907.4375 1115.253906 704.582031 1170.832031 623.855469 C 1242.472656 519.789062 1331.402344 628.285156 1376.042969 697.414062 C 1412.78125 754.308594 1432.164062 806.648438 1468.972656 852.296875 C 1522.703125 840.203125 1579.429688 831.097656 1643.210938 829.058594 C 1557.269531 744.894531 1459.671875 648.757812 1360.550781 546.402344 C 1337.730469 522.839844 1305.492188 492.515625 1310.222656 461.226562 C 1318.761719 404.640625 1413.84375 420.523438 1457.359375 437.992188 C 1560.230469 479.292969 1634.863281 548.113281 1732.273438 616.109375 C 1742.761719 623.441406 1764.542969 632.917969 1778.734375 643.21875 C 1784.714844 647.542969 1813.839844 678.359375 1817.453125 678.050781 C 1830.042969 677.019531 1847.164062 630.695312 1863.914062 612.238281 C 1905.792969 566.074219 1978.273438 516.183594 2076.875 527.0625 C 2135.457031 533.507812 2180.570312 587.601562 2243.375 585.128906 C 2309.742188 582.511719 2373.207031 509.179688 2375.019531 441.863281 C 2376.378906 391.148438 2358.234375 342.867188 2363.402344 294.726562 C 2369.007812 242.632812 2387.132812 198.242188 2413.746094 163.082031 C 2437.683594 131.460938 2486.460938 88.203125 2560.863281 93.394531 C 2649.871094 99.574219 2806.234375 243.683594 2862.902344 128.226562 C 2882.761719 87.75 2881.605469 7.25 2940.335938 0.453125 C 3005.386719 -7.066406 3007.941406 78.644531 2994.550781 147.589844 C 2983.757812 203.019531 2954.898438 332.382812 2905.480469 352.816406 C 2833.28125 382.664062 2744.191406 314.871094 2677.039062 360.5625" fill="inherit" fill-rule="evenodd"/></g><g id="change5_4"><path d="M 408.042969 1708.011719 C 435.414062 1718.730469 527.273438 1778.078125 547.433594 1708.011719 C 560.25 1722.300781 573.515625 1736.140625 582.285156 1754.46875 C 522.292969 1744.820312 518.710938 1791.578125 489.351562 1812.550781 C 456.195312 1783.761719 435.4375 1742.570312 408.042969 1708.011719" fill="#ffda00" fill-rule="evenodd"/></g><g id="change5_5"><path d="M 229.929688 1824.171875 C 227.496094 1835.398438 217.3125 1867.761719 214.441406 1882.25 C 217.386719 1901.25 242.144531 1898.441406 257.035156 1905.488281 C 243.597656 1912.691406 218.726562 1908.480469 202.828125 1913.230469 C 181.59375 1935.878906 168.328125 1966.488281 156.363281 1998.421875 C 151.773438 1977.390625 146.277344 1937.601562 156.363281 1924.851562 C 135.996094 1907.78125 83.453125 1922.898438 55.691406 1913.230469 C 89.109375 1891.148438 123.839844 1870.378906 117.644531 1808.691406 C 143.210938 1827.621094 193.253906 1850.269531 229.929688 1824.171875" fill="#ffda00" fill-rule="evenodd"/></g><g id="change3_16"><path d="M 481.613281 1444.722656 C 458.394531 1448.601562 418.867188 1436.175781 408.042969 1452.457031 C 426.835938 1456.902344 452.46875 1454.5 454.511719 1475.6875 C 448.246094 1493.960938 437.355469 1507.589844 431.273438 1526.027344 C 458.695312 1522.464844 477.519531 1510.316406 500.972656 1502.796875 C 503.117188 1528.128906 540.714844 1550.457031 562.921875 1553.125 C 548.773438 1538.894531 551.875 1507.394531 528.078125 1502.796875 C 529.445312 1473.183594 563.949219 1476.714844 578.410156 1460.195312 C 553.03125 1457.097656 533.136719 1470.179688 512.589844 1460.195312 C 507.308594 1435.796875 507.765625 1405.660156 497.101562 1386.636719 C 492.703125 1406.757812 495.675781 1434.246094 481.613281 1444.722656 Z M 504.84375 1336.300781 C 525.394531 1357.058594 528.875 1394.875 539.691406 1425.359375 C 626.210938 1401.824219 642.867188 1488.699219 574.539062 1498.929688 C 580.023438 1532.164062 603.976562 1546.925781 601.644531 1587.980469 C 562.441406 1625.132812 513.777344 1564.042969 481.613281 1545.386719 C 457.359375 1554.683594 436.96875 1567.859375 404.171875 1568.617188 C 402 1563.046875 398.136719 1559.167969 392.554688 1557.003906 C 387.890625 1527.820312 404.015625 1519.417969 408.042969 1498.929688 C 401.203125 1474.160156 375.996094 1478.777344 373.191406 1456.328125 C 368.425781 1418.105469 409.652344 1408.820312 462.25 1413.734375 C 476.105469 1387.582031 456.128906 1327.589844 504.84375 1336.300781" fill="inherit" fill-rule="evenodd"/></g></g></svg>