<?xml version="1.0" encoding="UTF-8"?><svg xmlns="http://www.w3.org/2000/svg" xmlns:xlink="http://www.w3.org/1999/xlink" height="3486.3" preserveAspectRatio="xMidYMid meet" version="1.0" viewBox="0.0 -23.3 2828.0 3486.3" width="2828.0" zoomAndPan="magnify"><defs><clipPath id="a"><path d="M 0 0 L 2638 0 L 2638 3463.03125 L 0 3463.03125 Z M 0 0"/></clipPath><clipPath id="b"><path d="M 2492 1323 L 2827.960938 1323 L 2827.960938 1882 L 2492 1882 Z M 2492 1323"/></clipPath></defs><g><g clip-path="url(#a)" id="change1_2"><path d="M 1726.269531 3278.128906 C 1705.429688 3276.167969 1656.5 3277.609375 1629.289062 3282.011719 C 1634.21875 3323.628906 1637.6875 3366.71875 1648.691406 3402.269531 C 1675.539062 3424.769531 1738.671875 3415.589844 1761.191406 3390.628906 C 1757.300781 3367.359375 1719.410156 3378.089844 1714.640625 3355.710938 C 1729.46875 3340.808594 1726.621094 3308.210938 1726.269531 3278.128906 Z M 861.21875 3270.371094 C 857.554688 3301.621094 848.308594 3327.289062 845.703125 3359.589844 C 864.3125 3359.769531 883.96875 3338.699219 896.132812 3355.710938 C 888.921875 3396.339844 816.894531 3372.160156 806.910156 3410.019531 C 860.726562 3412.109375 903.304688 3402.96875 934.925781 3382.871094 C 950.484375 3349.289062 954.035156 3303.699219 962.078125 3262.609375 C 925.980469 3262.71875 894.117188 3267.058594 861.21875 3270.371094 Z M 733.207031 2901.851562 C 713.347656 2853.179688 695.769531 2802.230469 694.417969 2735.050781 C 654.113281 2717.160156 613 2700.089844 574.160156 2680.742188 C 575.007812 2804.070312 606.882812 2916.910156 733.207031 2901.851562 Z M 2412.882812 2595.398438 C 2366.183594 2678.300781 2337.292969 2723.679688 2280.992188 2789.347656 C 2164.078125 2925.738281 2018.898438 3030.449219 1811.621094 3057.007812 C 1822.21875 3081.332031 1826.128906 3112.320312 1834.890625 3138.480469 C 2055.519531 3106.167969 2314.238281 3070.828125 2455.566406 2932.890625 C 2543.925781 2846.621094 2640.464844 2644.78125 2560.304688 2498.417969 C 2465.890625 2453.570312 2444.898438 2538.578125 2412.882812 2595.398438 Z M 1920.230469 2583.757812 C 1927.820312 2594.269531 1935.28125 2604.917969 1951.269531 2607.03125 C 1983.019531 2576.722656 1990.75 2522.390625 2024.96875 2494.539062 C 2014.75 2486.652344 2002.101562 2481.199219 1990.0625 2475.140625 C 1970.398438 2514.960938 1939.730469 2543.769531 1920.230469 2583.757812 Z M 1997.820312 2401.441406 C 1976.558594 2442.917969 2071.777344 2500.4375 2090.917969 2498.417969 C 2123.890625 2494.929688 2130.171875 2458.359375 2129.703125 2409.191406 C 2110.050781 2375.570312 2028.828125 2381.4375 1997.820312 2401.441406 Z M 1559.46875 2358.769531 C 1562.738281 2376.261719 1550.390625 2378.128906 1547.839844 2389.800781 C 1510.640625 2398.441406 1498.621094 2428.199219 1474.132812 2447.992188 C 1433.921875 2480.46875 1328.371094 2560.921875 1264.648438 2556.597656 C 1232.339844 2554.417969 1215.28125 2521.03125 1187.070312 2502.289062 C 1137.570312 2469.429688 1063.242188 2446.910156 1004.75 2420.832031 C 998.5 2414.160156 997.113281 2402.609375 989.234375 2397.558594 C 953.414062 2397.167969 941.527344 2372.859375 903.890625 2374.28125 C 895.949219 2384.4375 890.371094 2396.96875 892.253906 2416.949219 C 901.40625 2432.367188 933.238281 2425.109375 934.925781 2447.992188 C 927.371094 2455.960938 909.941406 2454.039062 900.011719 2459.621094 C 900.539062 2478.25 897.0625 2492.878906 884.496094 2498.417969 C 844.304688 2460.101562 747.179688 2453.929688 678.898438 2467.390625 C 668.265625 2502.660156 701.375 2514.640625 690.539062 2537.207031 C 655.863281 2529.210938 650.925781 2491.480469 601.316406 2498.417969 C 594.050781 2511.839844 587.414062 2525.890625 589.679688 2548.839844 C 603.421875 2557.078125 613.882812 2568.601562 620.710938 2583.757812 C 605.203125 2595.46875 589.804688 2580.261719 574.160156 2579.878906 C 560.5 2589.5 553.277344 2605.550781 550.886719 2626.429688 C 599.851562 2661.507812 660.664062 2684.75 721.570312 2707.890625 C 742.480469 2665.4375 773.871094 2633.46875 822.429688 2618.667969 C 832.945312 2621.089844 832.082031 2634.878906 845.703125 2634.191406 C 838.160156 2645.449219 832.898438 2644.25 837.945312 2661.339844 C 848.164062 2679.570312 883.753906 2672.429688 888.375 2696.25 C 887.570312 2709.671875 859.574219 2695.898438 861.21875 2711.769531 C 851.234375 2890.570312 819.871094 3047.992188 752.601562 3169.511719 C 761.074219 3196.589844 758.972656 3204.988281 744.84375 3223.820312 C 867.9375 3240.480469 1000.648438 3228.660156 1136.640625 3235.460938 C 1315.851562 3244.417969 1516.082031 3250.75 1699.121094 3243.222656 C 1746.320312 3241.277344 1798.511719 3253.378906 1838.769531 3227.699219 C 1842.5 3217.371094 1807.949219 3212.078125 1807.742188 3192.789062 C 1810.949219 3184.367188 1822.378906 3184.160156 1823.261719 3173.390625 C 1786.332031 3090.0625 1769.101562 2982.710938 1741.792969 2866.9375 C 1730.710938 2819.949219 1730.5 2760.199219 1710.761719 2704.011719 C 1689.96875 2644.859375 1641.742188 2562.902344 1683.601562 2529.449219 C 1741.941406 2543.800781 1829.082031 2542.128906 1865.929688 2506.167969 C 1877.730469 2511.96875 1857.621094 2528.289062 1873.679688 2525.570312 C 1932.351562 2528.628906 1949.128906 2489.808594 1974.542969 2459.621094 C 1956.28125 2426.269531 1970.242188 2377.699219 1993.941406 2362.648438 C 1939.152344 2363.078125 1873.839844 2356.839844 1819.371094 2362.648438 C 1770.242188 2367.878906 1711.121094 2372.820312 1671.960938 2385.921875 C 1626.019531 2401.289062 1595.859375 2435.550781 1555.589844 2440.230469 C 1562.632812 2380.46875 1683.269531 2395.789062 1656.449219 2327.730469 C 1622.289062 2336.25 1593.429688 2350.058594 1559.46875 2358.769531 Z M 2253.839844 2157.050781 C 2238.542969 2173.417969 2216.660156 2188.320312 2199.535156 2203.601562 C 2161.570312 2237.46875 2124.242188 2277.160156 2098.679688 2308.339844 C 2087.800781 2321.601562 2069.46875 2348.691406 2075.398438 2354.890625 C 2084.371094 2364.019531 2111.9375 2354.558594 2121.949219 2362.648438 C 2186.238281 2256.25 2275.339844 2174.648438 2354.691406 2083.347656 C 2297.582031 2072.320312 2282.371094 2126.5 2253.839844 2157.050781 Z M 2362.46875 2017.398438 C 2335.59375 2018.339844 2313.984375 1993.539062 2292.632812 2001.878906 C 2318.511719 2025.148438 2350.082031 2042.699219 2381.863281 2060.070312 C 2396.140625 2088.800781 2403.789062 2143.710938 2424.523438 2153.171875 C 2456.097656 2134.148438 2431.238281 2056.398438 2478.828125 2048.429688 C 2507.402344 2043.648438 2519.703125 2077.378906 2556.417969 2060.070312 C 2533.707031 2034.121094 2465.378906 2022.671875 2463.320312 1986.371094 C 2461.980469 1962.75 2491.34375 1951.160156 2502.113281 1928.179688 C 2470.140625 1933.710938 2459.8125 1960.890625 2420.660156 1959.210938 C 2402.535156 1934.660156 2380.25 1914.269531 2358.578125 1893.269531 C 2354.011719 1937.019531 2373.683594 1992.191406 2362.46875 2017.398438 Z M 356.925781 1749.738281 C 360.816406 1749.75 361.546875 1746.597656 364.6875 1745.859375 C 405.726562 1742.320312 425.835938 1759.699219 457.789062 1765.25 C 452.703125 1740.667969 466.355469 1714.480469 457.789062 1699.308594 C 430.347656 1719.730469 374.117188 1731.988281 356.925781 1749.738281 Z M 2160.742188 1020.445312 C 2116.28125 1038.78125 2072.769531 1040.269531 2032.730469 1051.484375 C 1993.71875 1062.425781 1959.019531 1085.160156 1924.109375 1101.902344 C 1888.339844 1119.109375 1850.242188 1136.785156 1819.371094 1156.226562 C 1788.789062 1175.472656 1766.191406 1211.292969 1726.269531 1214.417969 C 1728.261719 1180.191406 1763.878906 1179.59375 1776.699219 1156.226562 C 1749.152344 1148.855469 1716.628906 1146.472656 1695.242188 1132.941406 C 1289.277344 1244.203125 920.960938 1393.109375 562.523438 1551.898438 C 526.285156 1619.109375 497.207031 1693.46875 492.699219 1792.410156 C 500.984375 1816.449219 536.367188 1813.390625 535.371094 1846.710938 C 476.34375 1830.738281 441.28125 1790.8125 368.566406 1788.527344 C 343.664062 1885.839844 448.414062 1917.210938 512.09375 1951.449219 C 470.402344 1952.429688 426.488281 1951.191406 403.476562 1970.851562 C 375.324219 2070.5 517.042969 2032.859375 547.007812 2087.230469 C 421.9375 2103.367188 566.316406 2171.789062 624.589844 2149.289062 C 703.070312 2207.082031 783.875 2268.339844 872.855469 2316.097656 C 902.195312 2331.839844 932.640625 2355.109375 962.078125 2366.519531 C 1039.460938 2396.53125 1138.929688 2384.230469 1218.101562 2424.710938 C 1178.480469 2429.378906 1135.199219 2417.160156 1105.609375 2424.710938 C 1137.910156 2439.789062 1166.179688 2447.839844 1198.710938 2467.390625 C 1225.460938 2483.460938 1249.328125 2523.128906 1280.167969 2525.570312 C 1304.070312 2527.460938 1347.109375 2502.488281 1365.511719 2490.660156 C 1410.339844 2461.828125 1450.46875 2411 1489.652344 2382.039062 C 1456.582031 2387.8125 1419.5 2410.128906 1388.789062 2405.320312 C 1621.6875 2324.179688 1822.460938 2210.238281 1993.941406 2071.710938 C 2050.949219 2025.648438 2113.191406 1976.519531 2145.234375 1908.78125 C 2108.300781 1891.089844 2078.972656 1936.550781 2048.25 1912.660156 C 2087.371094 1865.152344 2162.273438 1853.410156 2199.535156 1804.039062 C 2157.152344 1783.679688 2119.839844 1839.199219 2087.039062 1815.679688 C 2126.941406 1770.238281 2200.597656 1758.558594 2222.800781 1695.429688 C 2138.265625 1638.691406 2042.761719 1771.621094 1986.179688 1757.488281 C 1997.980469 1735.679688 2021.859375 1725.941406 2040.492188 1710.949219 C 2027.878906 1621.398438 2003.140625 1543.992188 1990.0625 1454.917969 C 2063.96875 1324.53125 2114.921875 1171.160156 2168.496094 1020.445312 C 2165.90625 1020.445312 2163.335938 1020.445312 2160.742188 1020.445312 Z M 391.839844 1501.46875 C 379.289062 1506.257812 388.875 1488.921875 376.324219 1493.707031 C 242.257812 1579.46875 102.625 1680.339844 34.957031 1819.558594 C 35.175781 1817.199219 35.539062 1814.96875 38.835938 1815.679688 C 193 1777.179688 326.652344 1718.167969 457.789062 1656.640625 C 465.125 1648.941406 476.113281 1654.75 484.9375 1656.640625 C 490.4375 1622.019531 519.511719 1590.398438 523.734375 1567.410156 C 385.714844 1619.539062 264.589844 1709.039062 128.058594 1749.738281 C 191.8125 1691.488281 275.828125 1661.730469 349.171875 1617.851562 C 426.371094 1571.660156 511.015625 1540.800781 593.554688 1505.347656 C 757.34375 1435 920.421875 1359.992188 1090.089844 1291.984375 C 1259.171875 1224.230469 1441.269531 1173.050781 1625.417969 1117.429688 C 1716.507812 1089.917969 1811.878906 1070.265625 1908.601562 1047.621094 C 2005.582031 1024.886719 2107.070312 991.445312 2211.179688 1001.050781 C 2181.308594 1006.105469 2187.171875 1046.898438 2176.25 1070.882812 C 2278.378906 1030.773438 2379.78125 989.9375 2467.207031 935.105469 C 2442.605469 922.992188 2417.535156 917.726562 2389.617188 915.707031 C 2173.9375 900.261719 1961.820312 981.140625 1768.941406 1001.050781 C 1748.929688 999.09375 1753.320312 972.707031 1734.03125 970.03125 C 1658.011719 966.417969 1613.859375 1015.347656 1571.109375 1032.089844 C 1583.191406 971.710938 1637.53125 913.625 1606.019531 845.894531 C 1568.550781 765.351562 1389.289062 794.5 1330.597656 830.363281 C 1298.019531 850.292969 1279.269531 885.433594 1245.261719 888.554688 C 1261.167969 814.070312 1352.25 792.378906 1346.109375 706.25 C 1343.242188 665.753906 1309.789062 647.695312 1280.167969 644.167969 C 1178.570312 632.082031 1111.140625 720.078125 1055.179688 725.644531 C 1054.269531 691.101562 1090.402344 693.605469 1101.730469 671.320312 C 1095.667969 539.832031 1118.03125 436.773438 1121.121094 314.441406 C 1069.941406 298.378906 1008.417969 292.664062 993.113281 240.738281 C 1046.820312 244.671875 1084.238281 277.089844 1136.640625 283.402344 C 1165.441406 286.886719 1196.480469 280.492188 1225.859375 291.175781 C 1266.628906 306.007812 1312.191406 343.121094 1357.757812 368.742188 C 1421.46875 404.585938 1478.441406 453.023438 1567.230469 438.578125 C 1503.28125 360.074219 1416.820312 266.382812 1342.238281 186.4375 C 1315.171875 157.414062 1294.609375 119.257812 1268.53125 97.207031 C 1126.082031 -23.277344 911.726562 109.527344 818.550781 201.945312 C 681.261719 338.128906 561.867188 561.546875 597.4375 834.25 C 622.265625 826.730469 646.125 784.6875 686.65625 779.949219 C 632.890625 866.394531 484.722656 954.140625 558.644531 1094.167969 C 608.640625 1060.003906 653.859375 1000.730469 721.570312 997.183594 C 589.046875 1110.335938 450.871094 1238.53125 442.269531 1462.679688 C 521.933594 1418.210938 632.3125 1383.769531 733.207031 1373.460938 C 629.148438 1425.859375 497.644531 1450.820312 391.839844 1501.46875 Z M 349.171875 1749.738281 C 245.140625 1794.441406 126.414062 1845.027344 0.0429688 1854.46875 C -2.308594 1742.589844 89.878906 1672.75 155.210938 1613.96875 C 225.453125 1550.769531 302.191406 1482.171875 395.71875 1451.039062 C 405.765625 1307.214844 460.328125 1207.894531 527.609375 1121.320312 C 460.488281 1046.472656 508.644531 908.1875 566.402344 857.535156 C 497.164062 536.074219 671.71875 268.699219 849.582031 120.492188 C 927.515625 55.542969 1030.699219 -18.347656 1183.191406 4.109375 C 1216.332031 8.996094 1258.902344 31.726562 1287.929688 54.546875 C 1345.332031 99.671875 1394.359375 172.628906 1458.609375 244.628906 C 1485.371094 274.605469 1506.671875 301.460938 1543.949219 341.59375 C 1567.699219 367.148438 1623.359375 411.40625 1621.539062 442.464844 C 1619.0625 484.425781 1554.089844 492.878906 1497.398438 485.125 C 1364.460938 466.941406 1292.828125 347.625 1159.910156 329.972656 C 1156.460938 432.542969 1141.742188 523.855469 1144.402344 632.527344 C 1247.058594 562.542969 1447.398438 626.257812 1369.390625 768.304688 C 1514.421875 718.589844 1705.730469 770.984375 1648.691406 946.746094 C 1689.757812 926.433594 1760.792969 925.097656 1788.339844 958.386719 C 1936.742188 933.128906 2112.6875 882.839844 2284.878906 873.046875 C 2357.515625 868.902344 2502.730469 865.480469 2513.753906 923.480469 C 2525.207031 983.691406 2405.703125 1019.511719 2366.332031 1039.84375 C 2299.242188 1074.496094 2245.679688 1093.296875 2176.25 1113.542969 C 2136.605469 1240.699219 2096.058594 1366.957031 2032.730469 1470.4375 C 2047.140625 1536.1875 2068.300781 1595.199219 2075.398438 1668.28125 C 2123.628906 1645.710938 2262.230469 1614.089844 2257.726562 1703.191406 C 2256.070312 1735.839844 2231.023438 1743.570312 2211.179688 1765.25 C 2264.867188 1810.082031 2202.722656 1860.5 2160.742188 1877.75 C 2215.597656 1924.910156 2132.292969 1993.800781 2090.917969 2032.917969 C 2050.3125 2071.308594 2008.550781 2105.160156 1974.542969 2122.128906 C 1912.449219 2199.839844 1805.429688 2243.371094 1722.402344 2304.457031 C 1714.730469 2310.089844 1686.199219 2313.269531 1699.121094 2331.609375 C 1784.789062 2346.160156 1961.679688 2279.859375 2024.96875 2347.128906 C 2097.269531 2237.109375 2193.460938 2150.96875 2284.878906 2060.070312 C 2271.429688 2030.828125 2241.75 2017.839844 2246.085938 1970.851562 C 2259.597656 1949.199219 2299.476562 1954.671875 2323.671875 1963.089844 C 2335.632812 1924.730469 2304.550781 1862.890625 2343.070312 1850.601562 C 2385.304688 1837.109375 2403.472656 1897.371094 2436.167969 1912.660156 C 2481.695312 1900 2506.382812 1866.5 2560.304688 1862.230469 C 2563.808594 1869.070312 2568.972656 1874.25 2575.8125 1877.75 C 2573.328125 1930.859375 2528.777344 1941.910156 2509.867188 1978.609375 C 2533.832031 2011.429688 2611.886719 2021.058594 2610.71875 2067.828125 C 2609.742188 2107.25 2537.679688 2110.648438 2490.472656 2094.980469 C 2476.851562 2120.28125 2477.808594 2174.761719 2455.566406 2195.839844 C 2447.917969 2203.089844 2423.101562 2214.03125 2409.015625 2211.359375 C 2384.203125 2206.660156 2388.386719 2166.558594 2362.46875 2157.050781 C 2340.222656 2148.898438 2293.226562 2197.449219 2280.992188 2211.359375 C 2237.121094 2261.25 2196.921875 2328.089844 2152.988281 2374.28125 C 2184.515625 2456.628906 2132.441406 2571.558594 2048.25 2525.570312 C 2011.480469 2551.339844 2008.660156 2641.160156 1951.269531 2645.828125 C 1917.867188 2648.539062 1869.359375 2614.390625 1881.441406 2564.359375 C 1856.109375 2552.929688 1840.148438 2575.398438 1815.5 2579.878906 C 1784.460938 2585.511719 1749.789062 2573.261719 1714.640625 2579.878906 C 1752.339844 2703.820312 1790.371094 2861.019531 1811.621094 3014.339844 C 1937.082031 2998.441406 2028.910156 2956.550781 2110.308594 2894.089844 C 2210.945312 2816.878906 2299.558594 2708.898438 2366.332031 2591.519531 C 2395.863281 2539.628906 2417.789062 2448.917969 2486.582031 2440.230469 C 2614.734375 2424.039062 2650.128906 2550.488281 2634.003906 2672.980469 C 2617.878906 2795.410156 2543.710938 2906.609375 2459.429688 2979.429688 C 2310.140625 3108.449219 2078.769531 3150.71875 1854.289062 3177.269531 C 1924.398438 3221.820312 1860.320312 3316.917969 1765.070312 3289.769531 C 1749.71875 3364.238281 1821.070312 3340.699219 1803.859375 3410.019531 C 1795.160156 3445.058594 1713.191406 3471.601562 1664.210938 3460.449219 C 1603 3446.511719 1596.089844 3373.511719 1598.257812 3297.53125 C 1402.828125 3278.660156 1188.46875 3299.011719 1004.75 3278.128906 C 995.945312 3341.398438 981.9375 3390.261719 938.800781 3425.539062 C 923.152344 3438.339844 912.910156 3453.078125 900.011719 3456.570312 C 860.335938 3467.300781 805.113281 3449.828125 775.878906 3429.417969 C 778.289062 3368.46875 815.105469 3341.929688 818.550781 3282.011719 C 774.726562 3274.109375 726.441406 3270.667969 706.054688 3239.339844 C 705.125 3203.941406 715.734375 3195.550781 709.933594 3161.75 C 782.414062 3042.859375 807.488281 2876.570312 826.308594 2704.011719 C 820.945312 2692.558594 808.394531 2688.308594 803.03125 2676.859375 C 762.339844 2689.179688 768.539062 2748.402344 737.085938 2769.960938 C 739.917969 2830.492188 775.152344 2858.609375 772 2925.128906 C 746.402344 2956.519531 680.960938 2953.46875 647.867188 2940.640625 C 568.503906 2909.871094 523.554688 2785.550781 539.25 2676.859375 C 539.828125 2659.640625 517.082031 2658.980469 512.09375 2638.070312 C 502.511719 2597.910156 533.9375 2566.257812 554.765625 2544.96875 C 549.449219 2499.558594 570.683594 2480.707031 593.554688 2463.5 C 607.8125 2464.769531 627.898438 2460.199219 636.230469 2467.390625 C 656.675781 2392.371094 800.355469 2424.007812 861.21875 2440.230469 C 859.859375 2426.988281 850.125 2373.261719 872.855469 2362.648438 C 781.710938 2307.679688 692.15625 2251.121094 612.953125 2184.199219 C 547.457031 2197.761719 482.058594 2178.199219 457.789062 2137.652344 C 459.214844 2122.28125 454.230469 2100.480469 461.664062 2091.101562 C 383.164062 2089.007812 320.835938 1987.738281 387.960938 1932.0625 C 340.585938 1906.609375 289.675781 1799.230469 349.171875 1749.738281" fill="inherit" fill-rule="evenodd"/></g><g id="change1_3"><path d="M 965.960938 298.921875 C 969.835938 298.921875 973.71875 298.921875 977.597656 298.921875 C 976.828125 337.183594 1014.632812 336.890625 1020.269531 368.746094 C 980.453125 369.308594 951.71875 327.789062 965.960938 298.921875" fill="inherit" fill-rule="evenodd"/></g><g id="change1_4"><path d="M 845.703125 810.972656 C 855.625 810.808594 850.433594 813.867188 849.582031 818.730469 C 793.199219 841.234375 744.988281 892.570312 686.65625 900.203125 C 701.824219 873.402344 733.914062 864.535156 760.363281 849.777344 C 786.5625 835.132812 813.878906 818.535156 845.703125 810.972656" fill="inherit" fill-rule="evenodd"/></g><g id="change1_5"><path d="M 1140.523438 962.257812 C 1150.445312 962.089844 1145.253906 965.140625 1144.402344 970.019531 C 1109.652344 993.464844 1086.652344 1028.648438 1047.421875 1047.597656 C 1059.023438 999.726562 1109.445312 990.65625 1140.523438 962.257812" fill="inherit" fill-rule="evenodd"/></g><g id="change1_6"><path d="M 857.339844 997.183594 C 859.925781 997.183594 862.511719 997.183594 865.097656 997.183594 C 782.167969 1043.550781 707.585938 1098.28125 632.347656 1152.347656 C 667.664062 1076.390625 764.125 1028.148438 857.339844 997.183594" fill="inherit" fill-rule="evenodd"/></g><g id="change2_1"><path d="M 601.316406 1959.207031 C 612.421875 2016.886719 813.191406 2016.976562 853.464844 1959.207031 C 898.746094 1894.246094 835.300781 1859.988281 775.878906 1862.222656 C 706.820312 1864.828125 587.726562 1888.609375 601.316406 1959.207031 Z M 1633.191406 1889.390625 C 1639.53125 1929.011719 1753.539062 1942.421875 1807.738281 1935.933594 C 1866.242188 1928.933594 1904.257812 1887.652344 1900.84375 1827.320312 C 1846.402344 1761.804688 1615.839844 1781.359375 1633.191406 1889.390625 Z M 566.40625 1753.609375 C 560.847656 1788.238281 629.351562 1784.148438 620.710938 1749.726562 C 609.597656 1744.480469 580.804688 1749.757812 566.40625 1753.609375 Z M 581.921875 1695.421875 C 578.714844 1706.390625 587.386719 1705.476562 585.796875 1714.8125 C 599.910156 1720.804688 627.664062 1721.75 624.59375 1699.300781 C 620.246094 1688.675781 591.085938 1689.097656 581.921875 1695.421875 Z M 1869.824219 1664.386719 C 1870.558594 1685.621094 1888.40625 1689.769531 1908.605469 1691.539062 C 1911.839844 1667.726562 1885.183594 1657.105469 1869.824219 1664.386719 Z M 1167.683594 1734.21875 C 1181.265625 1752.949219 1209.933594 1756.605469 1233.625 1765.25 C 1235.644531 1811.242188 1223.671875 1843.21875 1190.953125 1854.457031 C 1177.464844 1848.570312 1180.332031 1826.300781 1167.683594 1819.558594 C 1152.382812 1837.527344 1161.503906 1873.773438 1179.3125 1881.625 C 1219.882812 1883.410156 1232.34375 1857.066406 1249.144531 1835.066406 C 1259.683594 1896.808594 1354.835938 1860.167969 1322.84375 1807.929688 C 1301.101562 1812.050781 1307.5625 1844.359375 1284.054688 1846.710938 C 1261.714844 1830.257812 1259.753906 1793.425781 1253.023438 1761.371094 C 1277.792969 1756.410156 1299.035156 1747.898438 1318.964844 1738.097656 C 1375.375 1625.351562 1145.605469 1626.339844 1167.683594 1734.21875 Z M 752.605469 1835.066406 C 845.917969 1858.460938 879.398438 1716.96875 834.066406 1644.996094 C 808.628906 1691.480469 834.164062 1795.3125 775.878906 1800.167969 C 703.90625 1806.144531 722.277344 1687.390625 733.210938 1633.351562 C 728.253906 1633.140625 727.835938 1628.378906 721.574219 1629.472656 C 672.980469 1687.898438 680.945312 1817.128906 752.605469 1835.066406 Z M 1881.453125 1637.234375 C 1886.605469 1645.070312 1907.390625 1648.953125 1916.351562 1641.113281 C 1918.152344 1614.351562 1876.328125 1593.835938 1881.453125 1637.234375 Z M 1679.734375 1726.457031 C 1650.261719 1728.492188 1629.984375 1686.113281 1625.429688 1664.386719 C 1619.691406 1637.070312 1634.617188 1594.0625 1606.023438 1582.925781 C 1591.128906 1637.832031 1600.75 1711.53125 1629.296875 1741.980469 C 1718.472656 1837.0625 1797.835938 1632.917969 1722.398438 1563.535156 C 1689.597656 1607.066406 1740.394531 1722.257812 1679.734375 1726.457031 Z M 1862.046875 1323.023438 C 1888.300781 1331.640625 1899.417969 1293.757812 1920.234375 1284.226562 C 1950.609375 1293.9375 1951.074219 1333.558594 1986.183594 1338.546875 C 2000.089844 1300.753906 1963.960938 1281.035156 1943.519531 1264.835938 C 1966.988281 1233.996094 2016.421875 1229.125 2036.609375 1195.019531 C 1954.398438 1198.242188 1896.707031 1259.335938 1862.046875 1323.023438 Z M 2168.507812 1020.441406 C 2114.921875 1171.164062 2063.972656 1324.523438 1990.066406 1454.910156 C 2003.148438 1543.980469 2027.886719 1621.394531 2040.488281 1710.945312 C 2021.863281 1725.929688 1997.992188 1735.671875 1986.183594 1757.488281 C 2042.765625 1771.621094 2138.28125 1638.6875 2222.816406 1695.421875 C 2200.605469 1758.554688 2126.9375 1770.242188 2087.046875 1815.675781 C 2119.851562 1839.1875 2157.164062 1783.667969 2199.542969 1804.035156 C 2162.273438 1853.410156 2087.378906 1865.144531 2048.253906 1912.660156 C 2078.972656 1936.546875 2108.3125 1891.082031 2145.234375 1908.78125 C 2113.199219 1976.515625 2050.949219 2025.644531 1993.945312 2071.707031 C 1822.46875 2210.234375 1621.699219 2324.175781 1388.792969 2405.316406 C 1419.503906 2410.125 1456.582031 2387.808594 1489.65625 2382.035156 C 1450.472656 2410.996094 1410.34375 2461.828125 1365.515625 2490.65625 C 1347.113281 2502.484375 1304.074219 2527.457031 1280.171875 2525.566406 C 1249.335938 2523.125 1225.464844 2483.457031 1198.714844 2467.386719 C 1166.183594 2447.835938 1137.914062 2439.785156 1105.613281 2424.707031 C 1135.203125 2417.15625 1178.484375 2429.375 1218.101562 2424.707031 C 1138.933594 2384.226562 1039.464844 2396.527344 962.082031 2366.515625 C 932.644531 2355.105469 902.199219 2331.835938 872.859375 2316.097656 C 783.878906 2268.335938 703.074219 2207.074219 624.59375 2149.285156 C 566.316406 2171.785156 421.9375 2103.367188 547.007812 2087.226562 C 517.042969 2032.855469 375.328125 2070.496094 403.476562 1970.847656 C 426.492188 1951.1875 470.402344 1952.433594 512.097656 1951.441406 C 448.414062 1917.203125 343.667969 1885.835938 368.566406 1788.523438 C 441.28125 1790.800781 476.347656 1830.738281 535.371094 1846.710938 C 536.371094 1813.382812 500.988281 1816.441406 492.699219 1792.40625 C 497.210938 1693.457031 526.289062 1619.101562 562.523438 1551.890625 C 920.964844 1393.109375 1289.285156 1244.203125 1695.246094 1132.9375 C 1716.628906 1146.46875 1749.164062 1148.851562 1776.707031 1156.207031 C 1763.894531 1179.601562 1728.257812 1180.183594 1726.28125 1214.394531 C 1766.199219 1211.277344 1788.796875 1175.480469 1819.367188 1156.207031 C 1850.253906 1136.789062 1888.34375 1119.089844 1924.113281 1101.902344 C 1959.03125 1085.148438 1993.722656 1062.414062 2032.742188 1051.476562 C 2072.78125 1040.269531 2116.285156 1038.785156 2160.746094 1020.441406 C 2163.339844 1020.441406 2165.914062 1020.441406 2168.507812 1020.441406" fill="#f7f6eb" fill-rule="evenodd"/></g><g id="change1_7"><path d="M 1485.765625 1032.097656 C 1414.925781 1071.171875 1334.265625 1100.417969 1264.644531 1140.714844 C 1274.957031 1102.3125 1323.765625 1090.871094 1357.757812 1074.765625 C 1398.304688 1055.542969 1435.554688 1039.078125 1485.765625 1032.097656" fill="inherit" fill-rule="evenodd"/></g><g id="change1_8"><path d="M 2036.609375 1195.015625 C 2016.417969 1229.117188 1966.980469 1234.003906 1943.507812 1264.835938 C 1963.960938 1281.03125 2000.082031 1300.75 1986.183594 1338.539062 C 1951.078125 1333.558594 1950.605469 1293.945312 1920.230469 1284.234375 C 1899.414062 1293.765625 1888.308594 1331.640625 1862.039062 1323.027344 C 1896.699219 1259.339844 1954.402344 1198.242188 2036.609375 1195.015625" fill="inherit" fill-rule="evenodd"/></g><g id="change1_9"><path d="M 2637.871094 1315.277344 C 2649.847656 1314.324219 2659.800781 1311.347656 2668.90625 1307.519531 C 2670.46875 1287.847656 2660.449219 1279.765625 2649.507812 1272.605469 C 2641.5625 1282.761719 2635.996094 1295.285156 2637.871094 1315.277344 Z M 2657.285156 1350.175781 C 2648.691406 1357.847656 2664.871094 1378.421875 2653.386719 1388.96875 C 2622.640625 1404.539062 2603.890625 1377.109375 2591.332031 1361.832031 C 2603.90625 1313.320312 2591.027344 1279.359375 2610.730469 1253.207031 C 2672.902344 1170.617188 2773.445312 1353.902344 2657.285156 1350.175781" fill="inherit" fill-rule="evenodd"/></g><g id="change3_1"><path d="M 2649.523438 1272.597656 C 2660.453125 1279.757812 2670.476562 1287.835938 2668.90625 1307.511719 C 2659.8125 1311.34375 2649.851562 1314.328125 2637.875 1315.277344 C 2635.992188 1295.273438 2641.5625 1282.757812 2649.523438 1272.597656" fill="#efc02b" fill-rule="evenodd"/></g><g id="change3_2"><path d="M 2591.34375 1563.535156 C 2605.671875 1585.402344 2607.542969 1619.738281 2634.003906 1629.472656 C 2702.988281 1579.496094 2727.847656 1485.414062 2773.65625 1412.242188 C 2756.914062 1529.996094 2705.746094 1646.878906 2692.199219 1780.765625 C 2665.484375 1749.285156 2640.691406 1715.882812 2622.363281 1676.027344 C 2570.652344 1674.734375 2566.363281 1720.882812 2540.90625 1745.847656 C 2536.5 1720.695312 2561.003906 1690.988281 2560.304688 1656.628906 C 2563.609375 1655.914062 2563.949219 1658.144531 2564.167969 1660.511719 C 2566.601562 1649.671875 2581.847656 1599.40625 2591.34375 1563.535156" fill="#efc02b" fill-rule="evenodd"/></g><g id="change1_10"><path d="M 1722.394531 1563.542969 C 1797.824219 1632.9375 1718.464844 1837.066406 1629.28125 1741.976562 C 1600.742188 1711.539062 1591.128906 1637.84375 1606.023438 1582.933594 C 1634.609375 1594.0625 1619.679688 1637.085938 1625.414062 1664.390625 C 1629.980469 1686.125 1650.257812 1728.507812 1679.730469 1726.46875 C 1740.386719 1722.261719 1689.589844 1607.066406 1722.394531 1563.542969" fill="inherit" fill-rule="evenodd"/></g><g id="change1_11"><path d="M 1916.351562 1641.117188 C 1907.382812 1648.953125 1886.601562 1645.082031 1881.4375 1637.242188 C 1876.316406 1593.832031 1918.152344 1614.355469 1916.351562 1641.117188" fill="inherit" fill-rule="evenodd"/></g><g id="change1_12"><path d="M 721.574219 1629.476562 C 727.839844 1628.382812 728.253906 1633.144531 733.210938 1633.359375 C 722.277344 1687.386719 703.90625 1806.140625 775.878906 1800.164062 C 834.164062 1795.3125 808.628906 1691.46875 834.066406 1644.996094 C 879.398438 1716.976562 845.917969 1858.457031 752.605469 1835.078125 C 680.945312 1817.128906 672.984375 1687.902344 721.574219 1629.476562" fill="inherit" fill-rule="evenodd"/></g><g id="change1_13"><path d="M 1190.949219 1722.566406 C 1220.679688 1747.15625 1274.628906 1735.589844 1303.445312 1718.691406 C 1303.445312 1708.351562 1303.445312 1698.011719 1303.445312 1687.664062 C 1273.183594 1667.066406 1189.855469 1675.09375 1190.949219 1722.566406 Z M 1318.96875 1738.09375 C 1299.035156 1747.902344 1277.796875 1756.402344 1253.027344 1761.363281 C 1259.757812 1793.425781 1261.71875 1830.246094 1284.050781 1846.707031 C 1307.570312 1844.363281 1301.109375 1812.039062 1322.847656 1807.925781 C 1354.832031 1860.167969 1259.6875 1896.796875 1249.148438 1835.074219 C 1232.347656 1857.066406 1219.878906 1883.40625 1179.316406 1881.625 C 1161.503906 1873.777344 1152.382812 1837.519531 1167.679688 1819.546875 C 1180.332031 1826.289062 1177.46875 1848.566406 1190.949219 1854.464844 C 1223.679688 1843.222656 1235.640625 1811.226562 1233.625 1765.242188 C 1209.9375 1756.605469 1181.265625 1752.953125 1167.679688 1734.214844 C 1145.605469 1626.34375 1375.371094 1625.351562 1318.96875 1738.09375" fill="inherit" fill-rule="evenodd"/></g><g id="change1_14"><path d="M 1908.605469 1691.550781 C 1888.410156 1689.765625 1870.558594 1685.625 1869.816406 1664.382812 C 1885.183594 1657.113281 1911.84375 1667.726562 1908.605469 1691.550781" fill="inherit" fill-rule="evenodd"/></g><g id="change4_1"><path d="M 1303.441406 1687.667969 C 1303.441406 1698.011719 1303.441406 1708.347656 1303.441406 1718.695312 C 1274.628906 1735.597656 1220.683594 1747.15625 1190.957031 1722.574219 C 1189.855469 1675.09375 1273.1875 1667.0625 1303.441406 1687.667969" fill="#f99" fill-rule="evenodd"/></g><g id="change1_15"><path d="M 624.589844 1699.316406 C 627.660156 1721.753906 599.90625 1720.816406 585.796875 1714.820312 C 587.386719 1705.480469 578.710938 1706.394531 581.917969 1695.429688 C 591.082031 1689.105469 620.246094 1688.695312 624.589844 1699.316406" fill="inherit" fill-rule="evenodd"/></g><g id="change1_16"><path d="M 620.710938 1749.738281 C 629.351562 1784.152344 560.847656 1788.253906 566.402344 1753.617188 C 580.804688 1749.761719 609.597656 1744.488281 620.710938 1749.738281" fill="inherit" fill-rule="evenodd"/></g><g id="change4_2"><path d="M 1656.449219 1885.507812 C 1710.761719 1927.714844 1883.324219 1933.347656 1881.429688 1838.964844 C 1818.089844 1803.917969 1664.089844 1797.96875 1656.449219 1885.507812 Z M 1900.835938 1827.316406 C 1904.246094 1887.65625 1866.234375 1928.941406 1807.738281 1935.941406 C 1753.53125 1942.4375 1639.535156 1929.011719 1633.179688 1889.398438 C 1615.828125 1781.371094 1846.382812 1761.8125 1900.835938 1827.316406" fill="#f99" fill-rule="evenodd"/></g><g id="change3_3"><path d="M 2762.023438 1796.289062 C 2775.628906 1800.769531 2773.890625 1820.601562 2773.652344 1838.960938 C 2761.105469 1835.980469 2753.355469 1828.21875 2750.375 1815.679688 C 2749.40625 1804.359375 2757.679688 1802.300781 2762.023438 1796.289062" fill="#efc02b" fill-rule="evenodd"/></g><g id="change4_3"><path d="M 1881.441406 1838.960938 C 1883.335938 1933.335938 1710.773438 1927.707031 1656.457031 1885.5 C 1664.09375 1797.964844 1818.097656 1803.917969 1881.441406 1838.960938" fill="#f99" fill-rule="evenodd"/></g><g id="change4_4"><path d="M 624.589844 1947.570312 C 627.566406 1984.359375 728.800781 1980.238281 768.121094 1974.730469 C 806.902344 1969.289062 851.175781 1945.648438 845.703125 1912.660156 C 838.929688 1871.851562 783.324219 1882.558594 744.84375 1889.390625 C 713.007812 1895.039062 621.964844 1915.140625 624.589844 1947.570312 Z M 775.878906 1862.230469 C 835.296875 1859.988281 898.746094 1894.25 853.460938 1959.210938 C 813.1875 2016.980469 612.417969 2016.890625 601.316406 1959.210938 C 587.722656 1888.609375 706.816406 1864.839844 775.878906 1862.230469" fill="#f99" fill-rule="evenodd"/></g><g id="change4_5"><path d="M 744.84375 1889.390625 C 783.324219 1882.558594 838.929688 1871.851562 845.703125 1912.660156 C 851.175781 1945.648438 806.902344 1969.289062 768.121094 1974.730469 C 728.800781 1980.238281 627.566406 1984.359375 624.589844 1947.570312 C 621.964844 1915.140625 713.007812 1895.039062 744.84375 1889.390625" fill="#f99" fill-rule="evenodd"/></g><g id="change3_4"><path d="M 2358.59375 1893.257812 C 2380.253906 1914.265625 2402.539062 1934.65625 2420.652344 1959.203125 C 2459.832031 1960.886719 2470.152344 1933.703125 2502.113281 1928.175781 C 2491.339844 1951.15625 2461.980469 1962.746094 2463.328125 1986.367188 C 2465.398438 2022.664062 2533.71875 2034.117188 2556.425781 2060.066406 C 2519.710938 2077.375 2507.414062 2043.644531 2478.839844 2048.425781 C 2431.242188 2056.394531 2456.097656 2134.144531 2424.542969 2153.167969 C 2403.792969 2143.707031 2396.140625 2088.796875 2381.867188 2060.066406 C 2350.09375 2042.695312 2318.507812 2025.148438 2292.628906 2001.875 C 2313.988281 1993.535156 2335.601562 2018.335938 2362.46875 2017.394531 C 2373.695312 1992.1875 2354.015625 1937.015625 2358.59375 1893.257812" fill="#efc02b" fill-rule="evenodd"/></g><g id="change3_5"><path d="M 2354.699219 2083.351562 C 2275.332031 2174.652344 2186.242188 2256.25 2121.945312 2362.652344 C 2111.933594 2354.5625 2084.371094 2364.019531 2075.398438 2354.890625 C 2069.460938 2348.691406 2087.792969 2321.601562 2098.671875 2308.339844 C 2124.242188 2277.160156 2161.582031 2237.46875 2199.535156 2203.601562 C 2216.652344 2188.320312 2238.550781 2173.421875 2253.835938 2157.050781 C 2282.382812 2126.5 2297.59375 2072.320312 2354.699219 2083.351562" fill="#efc02b" fill-rule="evenodd"/></g><g id="change5_1"><path d="M 1578.875 3072.527344 C 1586.164062 3056 1576.980469 3026.367188 1563.351562 3018.226562 C 1534.199219 3022.917969 1549.34375 3079.308594 1578.875 3072.527344 Z M 1621.542969 3072.527344 C 1645.691406 3060.058594 1627.046875 3013.839844 1602.140625 3014.339844 C 1593.199219 3034.878906 1600.550781 3069.347656 1621.542969 3072.527344 Z M 1043.542969 2684.617188 C 1061.3125 2692.597656 1094.953125 2698.816406 1097.851562 2672.976562 C 1081.632812 2668.507812 1060.304688 2669.15625 1051.304688 2657.46875 C 1046.152344 2663.945312 1041.023438 2670.457031 1043.542969 2684.617188 Z M 1287.929688 2645.828125 C 1251.660156 2647.117188 1225.296875 2739.355469 1198.714844 2762.199219 C 1141.613281 2759.40625 1094.285156 2766.375 1039.664062 2766.078125 C 1040.652344 2783.878906 1022.882812 2782.917969 1020.273438 2797.109375 C 1046.003906 2839.90625 1107.363281 2847.085938 1144.402344 2878.578125 C 1123.542969 2936.707031 1079.824219 2992.289062 1082.332031 3060.898438 C 1155.902344 3055.269531 1196.183594 2983.609375 1268.527344 2963.917969 C 1328.507812 3009.976562 1407.640625 3036.878906 1466.371094 3084.167969 C 1482.515625 3012.117188 1439.347656 2943.5 1423.703125 2878.578125 C 1460.386719 2848.539062 1535.890625 2822.917969 1520.683594 2766.078125 C 1472.425781 2760.027344 1420.679688 2757.457031 1369.402344 2754.4375 C 1339.015625 2726.238281 1331.566406 2644.265625 1287.929688 2645.828125 Z M 1055.183594 2603.15625 C 1023.265625 2631.167969 1097.234375 2654.585938 1109.496094 2626.425781 C 1100.175781 2609.875 1076.054688 2608.136719 1055.183594 2603.15625 Z M 1656.457031 2327.726562 C 1683.269531 2395.785156 1562.628906 2380.464844 1555.597656 2440.226562 C 1595.867188 2435.546875 1626.019531 2401.285156 1671.96875 2385.917969 C 1711.125 2372.816406 1770.246094 2367.875 1819.371094 2362.648438 C 1873.84375 2356.835938 1939.15625 2363.078125 1993.945312 2362.648438 C 1970.25 2377.695312 1956.28125 2426.265625 1974.546875 2459.617188 C 1949.136719 2489.808594 1932.355469 2528.625 1873.6875 2525.566406 C 1857.625 2528.285156 1877.734375 2511.964844 1865.929688 2506.167969 C 1829.085938 2542.125 1741.949219 2543.796875 1683.601562 2529.445312 C 1641.738281 2562.898438 1689.972656 2644.859375 1710.769531 2704.007812 C 1730.5 2760.199219 1730.722656 2819.949219 1741.792969 2866.9375 C 1769.109375 2982.707031 1786.332031 3090.058594 1823.261719 3173.390625 C 1822.382812 3184.160156 1810.957031 3184.371094 1807.75 3192.789062 C 1807.957031 3212.078125 1842.503906 3217.367188 1838.773438 3227.699219 C 1798.515625 3253.378906 1746.328125 3241.277344 1699.125 3243.21875 C 1516.085938 3250.75 1315.859375 3244.417969 1136.644531 3235.460938 C 1000.652344 3228.660156 867.9375 3240.480469 744.847656 3223.820312 C 758.972656 3204.988281 761.074219 3196.589844 752.605469 3169.507812 C 819.871094 3047.988281 851.238281 2890.566406 861.222656 2711.765625 C 859.578125 2695.898438 887.574219 2709.667969 888.378906 2696.246094 C 883.757812 2672.425781 848.167969 2679.566406 837.949219 2661.335938 C 832.902344 2644.246094 838.160156 2645.445312 845.707031 2634.1875 C 832.085938 2634.875 832.945312 2621.085938 822.433594 2618.667969 C 773.875 2633.46875 742.484375 2665.4375 721.574219 2707.886719 C 660.667969 2684.746094 599.855469 2661.507812 550.886719 2626.425781 C 553.28125 2605.546875 560.503906 2589.496094 574.164062 2579.875 C 589.808594 2580.257812 605.207031 2595.46875 620.714844 2583.757812 C 613.882812 2568.597656 603.425781 2557.078125 589.679688 2548.835938 C 587.414062 2525.886719 594.054688 2511.835938 601.316406 2498.417969 C 650.929688 2491.476562 655.867188 2529.207031 690.539062 2537.207031 C 701.375 2514.636719 668.265625 2502.65625 678.902344 2467.386719 C 747.183594 2453.925781 844.308594 2460.097656 884.496094 2498.417969 C 897.066406 2492.875 900.539062 2478.246094 900.011719 2459.617188 C 909.945312 2454.035156 927.375 2455.957031 934.925781 2447.988281 C 933.242188 2425.105469 901.410156 2432.367188 892.257812 2416.945312 C 890.375 2396.964844 895.949219 2384.4375 903.894531 2374.277344 C 941.527344 2372.855469 953.417969 2397.167969 989.234375 2397.558594 C 997.117188 2402.605469 998.503906 2414.15625 1004.753906 2420.824219 C 1063.242188 2446.90625 1137.574219 2469.425781 1187.074219 2502.285156 C 1215.285156 2521.027344 1232.34375 2554.417969 1264.652344 2556.597656 C 1328.371094 2560.917969 1433.929688 2480.46875 1474.136719 2447.988281 C 1498.628906 2428.195312 1510.640625 2398.4375 1547.839844 2389.796875 C 1550.398438 2378.125 1562.738281 2376.253906 1559.472656 2358.765625 C 1593.433594 2350.058594 1622.289062 2336.246094 1656.457031 2327.726562" fill="#4f397a" fill-rule="evenodd"/></g><g id="change2_2"><path d="M 2129.722656 2409.1875 C 2130.164062 2458.359375 2123.894531 2494.925781 2090.921875 2498.417969 C 2071.789062 2500.4375 1976.570312 2442.917969 1997.820312 2401.4375 C 2028.832031 2381.4375 2110.054688 2375.566406 2129.722656 2409.1875" fill="#f7f6eb" fill-rule="evenodd"/></g><g id="change6_1"><path d="M 1990.054688 2475.144531 C 2002.09375 2481.203125 2014.742188 2486.652344 2024.964844 2494.542969 C 1990.738281 2522.390625 1983.011719 2576.722656 1951.269531 2607.03125 C 1935.269531 2604.921875 1927.816406 2594.269531 1920.226562 2583.761719 C 1939.730469 2543.773438 1970.390625 2514.960938 1990.054688 2475.144531" fill="#a0935c" fill-rule="evenodd"/></g><g id="change2_3"><path d="M 2560.300781 2498.421875 C 2640.453125 2644.78125 2543.921875 2846.621094 2455.558594 2932.890625 C 2314.234375 3070.832031 2055.519531 3106.171875 1834.886719 3138.480469 C 1826.125 3112.320312 1822.21875 3081.332031 1811.609375 3057.011719 C 2018.894531 3030.449219 2164.070312 2925.742188 2280.996094 2789.351562 C 2337.289062 2723.683594 2366.1875 2678.300781 2412.886719 2595.402344 C 2444.882812 2538.582031 2465.875 2453.570312 2560.300781 2498.421875" fill="#f7f6eb" fill-rule="evenodd"/></g><g id="change1_17"><path d="M 1109.488281 2626.429688 C 1097.230469 2654.589844 1023.261719 2631.171875 1055.179688 2603.160156 C 1076.050781 2608.140625 1100.171875 2609.878906 1109.488281 2626.429688" fill="inherit" fill-rule="evenodd"/></g><g id="change1_18"><path d="M 1113.371094 3029.859375 C 1148.03125 3003.300781 1216.558594 2931.808594 1272.410156 2936.761719 C 1290.5 2938.371094 1292.488281 2952.210938 1307.320312 2960.039062 C 1350.070312 2982.601562 1406.289062 3002.71875 1443.101562 3022.109375 C 1420.890625 2978.359375 1416.609375 2916.699219 1388.789062 2878.578125 C 1417.730469 2842.871094 1463.351562 2823.839844 1493.519531 2789.351562 C 1446.96875 2782.898438 1391.558594 2785.28125 1346.109375 2777.71875 C 1327.429688 2742.101562 1311.601562 2703.609375 1287.929688 2672.980469 C 1263.460938 2710.460938 1247.699219 2780.761719 1198.710938 2793.238281 C 1155.828125 2804.148438 1105.101562 2780.710938 1059.058594 2800.988281 C 1099.269531 2828.019531 1158.78125 2835.738281 1175.429688 2886.328125 C 1148.089844 2924.949219 1128.828125 2992.289062 1113.371094 3029.859375 Z M 1369.390625 2754.441406 C 1420.679688 2757.460938 1472.421875 2760.03125 1520.679688 2766.078125 C 1535.878906 2822.921875 1460.378906 2848.539062 1423.699219 2878.578125 C 1439.339844 2943.5 1482.511719 3012.121094 1466.371094 3084.171875 C 1407.628906 3036.878906 1328.5 3009.980469 1268.53125 2963.921875 C 1196.179688 2983.609375 1155.898438 3055.269531 1082.328125 3060.898438 C 1079.820312 2992.289062 1123.539062 2936.710938 1144.398438 2878.578125 C 1107.359375 2847.089844 1046 2839.910156 1020.269531 2797.109375 C 1022.878906 2782.921875 1040.648438 2783.878906 1039.660156 2766.078125 C 1094.28125 2766.378906 1141.609375 2759.410156 1198.710938 2762.199219 C 1225.300781 2739.359375 1251.660156 2647.121094 1287.929688 2645.828125 C 1331.558594 2644.269531 1339.011719 2726.238281 1369.390625 2754.441406" fill="inherit" fill-rule="evenodd"/></g><g id="change1_19"><path d="M 1051.300781 2657.46875 C 1060.300781 2669.160156 1081.628906 2668.511719 1097.851562 2672.980469 C 1094.949219 2698.820312 1061.308594 2692.601562 1043.539062 2684.621094 C 1041.019531 2670.460938 1046.148438 2663.949219 1051.300781 2657.46875" fill="inherit" fill-rule="evenodd"/></g><g id="change2_4"><path d="M 574.160156 2680.738281 C 613 2700.089844 654.109375 2717.160156 694.414062 2735.050781 C 695.765625 2802.230469 713.347656 2853.179688 733.207031 2901.851562 C 606.882812 2916.910156 575.007812 2804.070312 574.160156 2680.738281" fill="#f7f6eb" fill-rule="evenodd"/></g><g id="change1_20"><path d="M 1602.136719 3014.339844 C 1627.042969 3013.839844 1645.679688 3060.058594 1621.539062 3072.53125 C 1600.550781 3069.351562 1593.191406 3034.878906 1602.136719 3014.339844" fill="inherit" fill-rule="evenodd"/></g><g id="change1_21"><path d="M 1563.351562 3018.230469 C 1576.96875 3026.371094 1586.160156 3056 1578.871094 3072.53125 C 1549.339844 3079.308594 1534.199219 3022.921875 1563.351562 3018.230469" fill="inherit" fill-rule="evenodd"/></g><g id="change2_5"><path d="M 962.078125 3262.609375 C 954.035156 3303.699219 950.484375 3349.289062 934.925781 3382.871094 C 903.304688 3402.96875 860.726562 3412.109375 806.910156 3410.019531 C 816.894531 3372.160156 888.921875 3396.339844 896.132812 3355.710938 C 883.96875 3338.699219 864.3125 3359.769531 845.703125 3359.589844 C 848.308594 3327.289062 857.554688 3301.621094 861.21875 3270.371094 C 894.121094 3267.058594 925.980469 3262.71875 962.078125 3262.609375" fill="#f7f6eb" fill-rule="evenodd"/></g><g id="change2_6"><path d="M 1714.636719 3355.710938 C 1719.398438 3378.089844 1757.292969 3367.359375 1761.183594 3390.628906 C 1738.664062 3415.589844 1675.53125 3424.769531 1648.683594 3402.269531 C 1637.683594 3366.71875 1634.214844 3323.628906 1629.289062 3282.011719 C 1656.496094 3277.609375 1705.417969 3276.171875 1726.261719 3278.128906 C 1726.617188 3308.210938 1729.460938 3340.808594 1714.636719 3355.710938" fill="#f7f6eb" fill-rule="evenodd"/></g><g id="change5_2"><path d="M 1357.757812 1074.75 C 1323.769531 1090.875 1274.960938 1102.304688 1264.648438 1140.714844 C 1334.269531 1100.414062 1414.929688 1071.160156 1485.769531 1032.089844 C 1435.558594 1039.078125 1398.3125 1055.542969 1357.757812 1074.75 Z M 632.351562 1152.359375 C 707.585938 1098.289062 782.167969 1043.539062 865.101562 997.183594 C 862.515625 997.183594 859.925781 997.183594 857.339844 997.183594 C 764.128906 1028.160156 667.664062 1076.386719 632.351562 1152.359375 Z M 1047.417969 1047.621094 C 1086.648438 1028.648438 1109.648438 993.464844 1144.402344 970.03125 C 1145.25 965.144531 1150.441406 962.085938 1140.519531 962.253906 C 1109.4375 990.660156 1059.019531 999.730469 1047.417969 1047.621094 Z M 760.363281 849.761719 C 733.914062 864.527344 701.824219 873.40625 686.65625 900.199219 C 744.988281 892.570312 793.199219 841.242188 849.582031 818.742188 C 850.433594 813.855469 855.625 810.816406 845.703125 810.988281 C 813.878906 818.550781 786.5625 835.144531 760.363281 849.761719 Z M 1020.269531 368.742188 C 1014.628906 336.898438 976.828125 337.195312 977.59375 298.929688 C 973.71875 298.929688 969.835938 298.929688 965.957031 298.929688 C 951.714844 327.78125 980.449219 369.316406 1020.269531 368.742188 Z M 733.207031 1373.460938 C 632.3125 1383.769531 521.933594 1418.210938 442.269531 1462.679688 C 450.871094 1238.53125 589.046875 1110.335938 721.570312 997.183594 C 653.859375 1000.730469 608.640625 1060.003906 558.644531 1094.167969 C 484.722656 954.140625 632.890625 866.394531 686.65625 779.949219 C 646.125 784.6875 622.265625 826.730469 597.4375 834.25 C 561.867188 561.546875 681.261719 338.128906 818.550781 201.945312 C 911.726562 109.527344 1126.082031 -23.277344 1268.53125 97.207031 C 1294.609375 119.257812 1315.171875 157.414062 1342.238281 186.4375 C 1416.820312 266.382812 1503.28125 360.074219 1567.230469 438.578125 C 1478.441406 453.023438 1421.46875 404.585938 1357.757812 368.742188 C 1312.191406 343.121094 1266.628906 306.007812 1225.859375 291.175781 C 1196.480469 280.492188 1165.441406 286.886719 1136.640625 283.402344 C 1084.238281 277.089844 1046.820312 244.671875 993.113281 240.738281 C 1008.417969 292.664062 1069.941406 298.378906 1121.121094 314.441406 C 1118.03125 436.773438 1095.667969 539.832031 1101.730469 671.320312 C 1090.402344 693.605469 1054.269531 691.101562 1055.179688 725.644531 C 1111.140625 720.078125 1178.570312 632.082031 1280.167969 644.167969 C 1309.789062 647.695312 1343.242188 665.753906 1346.109375 706.25 C 1352.25 792.378906 1261.167969 814.070312 1245.261719 888.554688 C 1279.269531 885.433594 1298.019531 850.292969 1330.597656 830.363281 C 1389.289062 794.5 1568.550781 765.351562 1606.019531 845.894531 C 1637.53125 913.625 1583.191406 971.710938 1571.109375 1032.089844 C 1613.859375 1015.347656 1658.011719 966.417969 1734.03125 970.03125 C 1753.320312 972.707031 1748.929688 999.09375 1768.941406 1001.050781 C 1961.820312 981.140625 2173.9375 900.261719 2389.617188 915.707031 C 2417.535156 917.726562 2442.605469 922.992188 2467.207031 935.105469 C 2379.78125 989.9375 2278.378906 1030.773438 2176.25 1070.882812 C 2187.171875 1046.898438 2181.308594 1006.105469 2211.179688 1001.050781 C 2107.070312 991.445312 2005.582031 1024.886719 1908.601562 1047.621094 C 1811.878906 1070.265625 1716.507812 1089.917969 1625.417969 1117.429688 C 1441.269531 1173.050781 1259.171875 1224.230469 1090.089844 1291.984375 C 920.421875 1359.992188 757.34375 1435 593.554688 1505.347656 C 511.015625 1540.800781 426.371094 1571.660156 349.171875 1617.851562 C 275.828125 1661.730469 191.8125 1691.488281 128.058594 1749.738281 C 264.589844 1709.039062 385.714844 1619.539062 523.734375 1567.410156 C 519.511719 1590.398438 490.4375 1622.019531 484.9375 1656.640625 C 476.113281 1654.75 465.125 1648.941406 457.789062 1656.640625 C 326.652344 1718.167969 193 1777.179688 38.835938 1815.679688 C 35.539062 1814.96875 35.175781 1817.199219 34.957031 1819.558594 C 102.625 1680.339844 242.257812 1579.46875 376.324219 1493.707031 C 388.875 1488.921875 379.289062 1506.257812 391.839844 1501.46875 C 497.644531 1450.820312 629.148438 1425.859375 733.207031 1373.460938" fill="#4f397a" fill-rule="evenodd"/></g><g clip-path="url(#b)" id="change1_1"><path d="M 2750.378906 1815.679688 C 2753.34375 1828.21875 2761.117188 1835.980469 2773.644531 1838.960938 C 2773.90625 1820.601562 2775.640625 1800.769531 2762.019531 1796.289062 C 2757.683594 1802.300781 2749.40625 1804.359375 2750.378906 1815.679688 Z M 2564.164062 1660.519531 C 2563.957031 1658.140625 2563.609375 1655.921875 2560.296875 1656.632812 C 2560.988281 1690.984375 2536.507812 1720.703125 2540.898438 1745.859375 C 2566.367188 1720.878906 2570.636719 1674.746094 2622.355469 1676.027344 C 2640.695312 1715.878906 2665.488281 1749.289062 2692.1875 1780.769531 C 2705.738281 1646.878906 2756.917969 1529.996094 2773.644531 1412.242188 C 2727.859375 1485.40625 2702.980469 1579.496094 2633.996094 1629.480469 C 2607.539062 1619.746094 2605.664062 1585.410156 2591.332031 1563.53125 C 2581.84375 1599.410156 2566.59375 1649.675781 2564.164062 1660.519531 Z M 2707.714844 1819.558594 C 2694.945312 1819.71875 2688.40625 1826.109375 2672.789062 1823.441406 C 2639.359375 1803.847656 2631.933594 1758.269531 2602.976562 1734.21875 C 2574.957031 1752.949219 2558.300781 1817.339844 2513.746094 1807.929688 C 2466.363281 1797.910156 2510.34375 1703.023438 2525.386719 1637.234375 C 2538.242188 1581.003906 2542.875 1466.6875 2579.691406 1462.679688 C 2615.882812 1458.742188 2623.953125 1512.992188 2637.882812 1559.664062 C 2657.59375 1527.515625 2685.699219 1487.039062 2715.453125 1431.640625 C 2737.347656 1390.957031 2773.644531 1290.535156 2827.964844 1334.65625 C 2815.875 1483.011719 2759.835938 1620.753906 2730.980469 1765.25 C 2743.371094 1767.5 2749.875 1754.917969 2769.777344 1757.488281 C 2830.046875 1765.308594 2834.992188 1885.738281 2765.890625 1881.628906 C 2735.648438 1879.828125 2721.472656 1854.820312 2707.714844 1819.558594" fill="inherit" fill-rule="evenodd"/></g><g id="change7_1"><path d="M 457.789062 1699.304688 C 466.355469 1714.476562 452.703125 1740.660156 457.789062 1765.246094 C 425.839844 1759.695312 405.726562 1742.316406 364.6875 1745.855469 C 361.546875 1746.589844 360.820312 1749.75 356.929688 1749.738281 C 374.117188 1731.980469 430.347656 1719.722656 457.789062 1699.304688" fill="#fff" fill-rule="evenodd"/></g><g id="change8_1"><path d="M 1175.429688 2886.328125 C 1158.78125 2835.738281 1099.269531 2828.019531 1059.058594 2800.988281 C 1105.101562 2780.710938 1155.828125 2804.148438 1198.710938 2793.238281 C 1247.699219 2780.761719 1263.460938 2710.460938 1287.929688 2672.980469 C 1311.601562 2703.609375 1327.429688 2742.101562 1346.109375 2777.71875 C 1391.558594 2785.28125 1446.96875 2782.898438 1493.519531 2789.351562 C 1463.351562 2823.839844 1417.730469 2842.871094 1388.789062 2878.578125 C 1416.609375 2916.699219 1420.890625 2978.359375 1443.101562 3022.109375 C 1406.289062 3002.71875 1350.070312 2982.601562 1307.320312 2960.039062 C 1292.488281 2952.210938 1290.5 2938.371094 1272.410156 2936.761719 C 1216.558594 2931.808594 1148.03125 3003.300781 1113.371094 3029.859375 C 1128.828125 2992.289062 1148.089844 2924.949219 1175.429688 2886.328125" fill="#ffda00" fill-rule="evenodd"/></g></g></svg>