<?xml version="1.0" encoding="UTF-8" standalone="no"?><svg xmlns="http://www.w3.org/2000/svg" xmlns:xlink="http://www.w3.org/1999/xlink" fill="#ffffff" height="500.5" preserveAspectRatio="xMidYMid meet" version="1" viewBox="0.0 0.0 466.2 500.5" width="466.2" zoomAndPan="magnify"><g id="change1_1"><path d="M445.29,11.71l-139.74,227.7L214,374.17l-4.04,6.44l0.23,0.39l-4.45,7.42l-0.6,0.61l-3.4,3.43v2.67l-56.03,93.65H20.94 l139.8-227.79l91.16-134.7l4.02-6.45l-0.24-0.4l14.78-24.82l0.61-0.59l3.61-3.46v-3.01l45.23-75.84H445.29 M466.22,0H313.25 l-50.29,84.33v1.24l-1.76,1.69l-19.17,32.2l0.16,0.27l-91.31,134.92L0,500.49h152.35l61.1-102.13v-1.08l1.6-1.62l8.78-14.65 l-0.16-0.26l91.7-134.99L466.22,0L466.22,0z"/><path d="M145.71,11.71l64.09,107.1l-64.57,95.41l-58.86-95.91l-0.11-0.18l-0.12-0.18l-0.4-0.61L20.93,11.71H145.71 M152.35,0H0 l75.87,123.65l0.52,0.79l68.36,111.39l78.93-116.63L152.35,0L152.35,0z"/><path d="M320.96,286.21l124.33,202.56H319.9l-63.83-107.06L320.96,286.21 M321.46,264.64L242.2,381.31l71.05,119.19h152.97 L321.46,264.64L321.46,264.64z"/></g></svg>