<svg width="300" height="120" viewBox="0 0 300 120" fill="none" xmlns="http://www.w3.org/2000/svg">
<path fill-rule="evenodd" clip-rule="evenodd" d="M300 57H0V100V110C0 115.523 4.47715 120 10 120H274.535L300 100V57Z" fill="black"/>
<path fill-rule="evenodd" clip-rule="evenodd" d="M299 58H1V110C1 114.971 5.02944 119 10 119H274.189L299 99.5138V58ZM300 100L274.535 120H10C4.47715 120 0 115.523 0 110V57H300V100Z" fill="#FCFC03"/>
<path fill-rule="evenodd" clip-rule="evenodd" d="M300 10.0007V23.4688V24.2895V67.9995H0V24.2895V23.4688H0.896954L17.5851 8.1979L74.0217 8.19717L86.747 0L290 0.000695608C295.523 0.000714509 300 4.47786 300 10.0007Z" fill="black"/>
<path fill-rule="evenodd" clip-rule="evenodd" d="M299 58H1V110C1 114.971 5.02944 119 10 119H274.189L299 99.5138V58ZM300 100L274.535 120H10C4.47715 120 0 115.523 0 110V57H300V100Z" fill="#FCFC03"/>
<path fill-rule="evenodd" clip-rule="evenodd" d="M300 10.0007V23.4688V24.2895V67.9995H0V24.2895V23.4688H0.896954L17.5851 8.1979L74.0217 8.19717L86.747 0L290 0.000695608C295.523 0.000714509 300 4.47786 300 10.0007Z" fill="#FCFC03"/>
<rect x="27.1826" y="21" width="36" height="36" rx="4" fill="black"/>
<path d="M52.005 38.8612L55.6862 37.0269L56.9552 33.1321L54.4173 31.2852H37.5187L33.6113 34.1874H53.475L52.4196 37.4541H44.454L43.6876 39.8412H51.6532L49.4168 46.7137L53.1483 44.8668L54.4801 40.7458L51.9799 38.9115L52.005 38.8612Z" fill="#FCFC03"/>
<path d="M39.2278 43.7616L41.527 36.6002L38.9765 34.6904L35.1445 46.7142H49.4172L50.3721 43.7616H39.2278Z" fill="#FCFC03"/>
<path d="M265.059 44.9222V35.0582H260.595C260.325 35.0582 260.199 34.9142 260.199 34.6802V33.0782C260.199 32.8442 260.325 32.7002 260.595 32.7002H272.421C272.691 32.7002 272.817 32.8442 272.817 33.0782V34.6802C272.817 34.9142 272.691 35.0582 272.421 35.0582H267.975V44.9222C267.975 45.1562 267.813 45.3002 267.561 45.3002H265.455C265.203 45.3002 265.059 45.1562 265.059 44.9222Z" fill="black"/>
<path d="M244.779 41.5562H246.813C247.065 41.5562 247.227 41.6822 247.227 41.9342V42.1142C247.227 42.6722 247.461 42.9422 248.073 42.9422H253.257C254.211 42.9422 254.445 42.7082 254.445 41.9522V41.0882C254.445 40.3322 254.211 40.0982 253.257 40.0982H247.479C245.445 40.0982 244.545 39.2162 244.545 37.2902V35.5082C244.545 33.5822 245.445 32.7002 247.479 32.7002H254.175C256.335 32.7002 257.109 33.4382 257.109 35.5082V36.0662C257.109 36.3182 256.965 36.4442 256.713 36.4442H254.679C254.409 36.4442 254.283 36.3182 254.283 36.0662V35.8862C254.283 35.3282 254.031 35.0582 253.401 35.0582H248.649C247.695 35.0582 247.461 35.2922 247.461 36.0482V36.7862C247.461 37.5602 247.695 37.7942 248.649 37.7942H254.409C256.461 37.7942 257.361 38.6582 257.361 40.6022V42.4922C257.361 44.4182 256.461 45.3002 254.409 45.3002H247.317C245.157 45.3002 244.383 44.5622 244.383 42.4922V41.9342C244.383 41.6822 244.527 41.5562 244.779 41.5562Z" fill="black"/>
<path d="M238.709 44.9402L237.827 42.8882H231.023L230.159 44.9402C230.051 45.1922 229.907 45.3002 229.601 45.3002H227.369C227.135 45.3002 227.045 45.1202 227.135 44.9042L232.409 33.0602C232.499 32.8082 232.661 32.7002 232.967 32.7002H236.027C236.333 32.7002 236.477 32.8082 236.585 33.0602L241.859 44.9042C241.949 45.1202 241.859 45.3002 241.643 45.3002H239.267C238.943 45.3002 238.817 45.1922 238.709 44.9402ZM234.425 34.8782L231.995 40.5842H236.855L234.425 34.8782Z" fill="black"/>
<path d="M216.308 33.0782V42.9422H224.516C224.768 42.9422 224.912 43.0862 224.912 43.3202V44.9222C224.912 45.1562 224.768 45.3002 224.516 45.3002H213.788C213.518 45.3002 213.392 45.1562 213.392 44.9222V33.0782C213.392 32.8442 213.518 32.7002 213.788 32.7002H215.894C216.146 32.7002 216.308 32.8442 216.308 33.0782Z" fill="black"/>
<path d="M209.411 36.2282C209.411 37.7942 208.853 38.6402 207.593 38.9282C208.997 39.1802 209.591 40.0262 209.591 41.6642V42.4922C209.591 44.4182 208.691 45.3002 206.657 45.3002H197.099C196.829 45.3002 196.703 45.1562 196.703 44.9222V33.0782C196.703 32.8442 196.829 32.7002 197.099 32.7002H206.459C208.493 32.7002 209.411 33.5822 209.411 35.5082V36.2282ZM205.361 40.0982H199.619V42.9422H205.361C206.405 42.9422 206.675 42.6902 206.675 41.7902V41.2502C206.675 40.3502 206.405 40.0982 205.361 40.0982ZM199.619 35.0582V37.7942H205.181C206.207 37.7942 206.495 37.5242 206.495 36.6422V36.2102C206.495 35.3102 206.207 35.0582 205.181 35.0582H199.619Z" fill="black"/>
<path d="M184.845 45.3002H181.191C180.903 45.3002 180.759 45.2282 180.633 44.9942L174.603 35.0402V44.9222C174.603 45.1562 174.459 45.3002 174.207 45.3002H172.299C172.029 45.3002 171.903 45.1562 171.903 44.9222V33.0782C171.903 32.8442 172.029 32.7002 172.299 32.7002H175.935C176.223 32.7002 176.367 32.7902 176.493 33.0062L182.523 42.9782V33.0782C182.523 32.8442 182.685 32.7002 182.937 32.7002H184.845C185.097 32.7002 185.241 32.8442 185.241 33.0782V44.9222C185.241 45.1562 185.097 45.3002 184.845 45.3002Z" fill="black"/>
<path d="M167.703 35.5802V42.4202C167.703 44.4002 166.767 45.3002 164.697 45.3002H157.461C155.409 45.3002 154.437 44.4002 154.437 42.4202V35.5802C154.437 33.6002 155.409 32.7002 157.461 32.7002H164.697C166.767 32.7002 167.703 33.6002 167.703 35.5802ZM164.787 41.5922V36.4082C164.787 35.2922 164.517 35.0582 163.185 35.0582H158.955C157.623 35.0582 157.353 35.2922 157.353 36.4082V41.5922C157.353 42.7082 157.623 42.9422 158.955 42.9422H163.185C164.517 42.9422 164.787 42.7082 164.787 41.5922Z" fill="black"/>
<path d="M136.394 44.9222V35.0582H131.93C131.66 35.0582 131.534 34.9142 131.534 34.6802V33.0782C131.534 32.8442 131.66 32.7002 131.93 32.7002H143.756C144.026 32.7002 144.152 32.8442 144.152 33.0782V34.6802C144.152 34.9142 144.026 35.0582 143.756 35.0582H139.31V44.9222C139.31 45.1562 139.148 45.3002 138.896 45.3002H136.79C136.538 45.3002 136.394 45.1562 136.394 44.9222Z" fill="black"/>
<path d="M123.112 33.0782V42.9422H131.32C131.572 42.9422 131.716 43.0862 131.716 43.3202V44.9222C131.716 45.1562 131.572 45.3002 131.32 45.3002H120.592C120.322 45.3002 120.196 45.1562 120.196 44.9222V33.0782C120.196 32.8442 120.322 32.7002 120.592 32.7002H122.698C122.95 32.7002 123.112 32.8442 123.112 33.0782Z" fill="black"/>
<path d="M115.792 33.0782V44.9222C115.792 45.1562 115.63 45.3002 115.378 45.3002H113.272C113.002 45.3002 112.876 45.1562 112.876 44.9222V33.0782C112.876 32.8442 113.002 32.7002 113.272 32.7002H115.378C115.63 32.7002 115.792 32.8442 115.792 33.0782Z" fill="black"/>
<path d="M98.6972 33.0782V41.5922C98.6972 42.7082 98.9492 42.9422 100.299 42.9422H104.043C105.393 42.9422 105.663 42.7082 105.663 41.5922V33.0782C105.663 32.8442 105.807 32.7002 106.059 32.7002H108.165C108.417 32.7002 108.579 32.8442 108.579 33.0782V42.4202C108.579 44.4002 107.643 45.3002 105.573 45.3002H98.8053C96.7352 45.3002 95.7812 44.4002 95.7812 42.4202V33.0782C95.7812 32.8442 95.9072 32.7002 96.1772 32.7002H98.2832C98.5532 32.7002 98.6972 32.8442 98.6972 33.0782Z" fill="black"/>
<path d="M91.8906 36.2282C91.8906 37.7942 91.3326 38.6402 90.0726 38.9282C91.4766 39.1802 92.0706 40.0262 92.0706 41.6642V42.4922C92.0706 44.4182 91.1706 45.3002 89.1366 45.3002H79.5786C79.3086 45.3002 79.1826 45.1562 79.1826 44.9222V33.0782C79.1826 32.8442 79.3086 32.7002 79.5786 32.7002H88.9386C90.9726 32.7002 91.8906 33.5822 91.8906 35.5082V36.2282ZM87.8406 40.0982H82.0986V42.9422H87.8406C88.8846 42.9422 89.1546 42.6902 89.1546 41.7902V41.2502C89.1546 40.3502 88.8846 40.0982 87.8406 40.0982ZM82.0986 35.0582V37.7942H87.6606C88.6866 37.7942 88.9746 37.5242 88.9746 36.6422V36.2102C88.9746 35.3102 88.6866 35.0582 87.6606 35.0582H82.0986Z" fill="black"/>
<path d="M271.213 96.652V95.872C270.911 96.532 270.209 96.88 269.119 96.88H267.212C265.721 96.88 265.076 96.352 265.076 95.164V92.284C265.076 91.096 265.721 90.568 267.212 90.568H269.033C270.023 90.568 270.696 90.856 271.026 91.408V88.228C271.026 88.072 271.127 88 271.299 88H272.403C272.575 88 272.675 88.072 272.675 88.228V96.652C272.675 96.808 272.575 96.88 272.403 96.88H271.499C271.313 96.88 271.213 96.808 271.213 96.652ZM267.929 91.708C266.897 91.708 266.711 91.852 266.711 92.56V94.888C266.711 95.596 266.897 95.74 267.929 95.74H269.463C270.596 95.74 271.026 95.38 271.026 94.564V92.884C271.026 92.068 270.596 91.708 269.463 91.708H267.929Z" fill="#FCFC03"/>
<path d="M261.315 96.8804H257.845C256.368 96.8804 255.709 96.3524 255.709 95.1644V92.2844C255.709 91.0964 256.368 90.5684 257.845 90.5684H261.315C262.677 90.5684 263.308 91.0604 263.308 92.1764V94.0244C263.308 94.1804 263.207 94.2524 263.035 94.2524H257.343V94.9004C257.343 95.6084 257.53 95.7524 258.562 95.7524H261.014C261.487 95.7524 261.716 95.6324 261.716 95.2724V95.2604C261.716 95.1164 261.802 95.0324 262.003 95.0324H263.035C263.207 95.0324 263.308 95.1164 263.308 95.2604V95.2844C263.308 96.4124 262.72 96.8804 261.315 96.8804ZM257.343 92.5484V93.1484H261.702V92.2364C261.702 91.8284 261.444 91.6964 260.956 91.6964H258.562C257.53 91.6964 257.343 91.8524 257.343 92.5484Z" fill="#FCFC03"/>
<path d="M252.269 96.652V95.872C251.968 96.532 251.266 96.88 250.176 96.88H248.269C246.778 96.88 246.133 96.352 246.133 95.164V92.284C246.133 91.096 246.778 90.568 248.269 90.568H250.09C251.079 90.568 251.753 90.856 252.083 91.408V88.228C252.083 88.072 252.183 88 252.355 88H253.459C253.631 88 253.732 88.072 253.732 88.228V96.652C253.732 96.808 253.631 96.88 253.459 96.88H252.556C252.37 96.88 252.269 96.808 252.269 96.652ZM248.986 91.708C247.954 91.708 247.767 91.852 247.767 92.56V94.888C247.767 95.596 247.954 95.74 248.986 95.74H250.52C251.653 95.74 252.083 95.38 252.083 94.564V92.884C252.083 92.068 251.653 91.708 250.52 91.708H248.986Z" fill="#FCFC03"/>
<path d="M238.375 90.7964V94.8884C238.375 95.5964 238.547 95.7404 239.565 95.7404H240.941C242.088 95.7404 242.504 95.3804 242.504 94.5644V90.7964C242.504 90.6404 242.605 90.5684 242.791 90.5684H243.881C244.053 90.5684 244.153 90.6404 244.153 90.7964V96.6524C244.153 96.8084 244.053 96.8804 243.881 96.8804H242.977C242.791 96.8804 242.705 96.8084 242.705 96.6524V95.8244C242.433 96.5204 241.716 96.8804 240.597 96.8804H238.863C237.386 96.8804 236.712 96.3524 236.712 95.1644V90.7964C236.712 90.6404 236.827 90.5684 236.999 90.5684H238.088C238.275 90.5684 238.375 90.6404 238.375 90.7964Z" fill="#FCFC03"/>
<path d="M234.695 95.74H235.04C235.212 95.74 235.312 95.812 235.312 95.968V96.652C235.312 96.808 235.212 96.88 235.04 96.88H234.208C232.86 96.88 232.315 96.448 232.315 95.368V88.228C232.315 88.072 232.43 88 232.602 88H233.692C233.878 88 233.964 88.072 233.964 88.228V95.2C233.964 95.608 234.122 95.74 234.695 95.74Z" fill="#FCFC03"/>
<path d="M229.051 95.2484V94.9484C229.051 94.7924 229.137 94.7204 229.338 94.7204H230.37C230.542 94.7204 230.643 94.7924 230.643 94.9484V95.2844C230.643 96.4124 230.055 96.8804 228.65 96.8804H225.18C223.703 96.8804 223.044 96.3524 223.044 95.1644V92.2844C223.044 91.0964 223.703 90.5684 225.18 90.5684H228.65C230.055 90.5684 230.643 91.0364 230.643 92.1644V92.5004C230.643 92.6564 230.542 92.7284 230.37 92.7284H229.338C229.137 92.7284 229.051 92.6564 229.051 92.5004V92.2004C229.051 91.8404 228.808 91.7084 228.32 91.7084H225.897C224.865 91.7084 224.678 91.8524 224.678 92.5604V94.8884C224.678 95.5964 224.865 95.7404 225.897 95.7404H228.32C228.808 95.7404 229.051 95.6084 229.051 95.2484Z" fill="#FCFC03"/>
<path d="M219.516 96.6524V92.5604C219.516 91.8524 219.33 91.7084 218.312 91.7084H216.95C215.803 91.7084 215.387 92.0684 215.387 92.8844V96.6524C215.387 96.8084 215.301 96.8804 215.1 96.8804H214.025C213.824 96.8804 213.738 96.8084 213.738 96.6524V90.7964C213.738 90.6404 213.824 90.5684 214.025 90.5684H214.914C215.1 90.5684 215.186 90.6404 215.186 90.7964V91.6484C215.459 90.9404 216.147 90.5684 217.294 90.5684H219.029C220.506 90.5684 221.165 91.0964 221.165 92.2844V96.6524C221.165 96.8084 221.065 96.8804 220.893 96.8804H219.803C219.617 96.8804 219.516 96.8084 219.516 96.6524Z" fill="#FCFC03"/>
<path d="M211.5 88.7325V96.6285C211.5 96.7965 211.385 96.8805 211.185 96.8805H210.009C209.808 96.8805 209.708 96.7965 209.708 96.6285V88.7325C209.708 88.5645 209.808 88.4805 210.009 88.4805H211.185C211.385 88.4805 211.5 88.5645 211.5 88.7325Z" fill="#FCFC03"/>
<path d="M197.808 92.2124V92.6444C197.808 93.0164 198.037 93.1484 198.525 93.1484H201.679C203.098 93.1484 203.672 93.5204 203.672 94.7444V95.2844C203.672 96.4724 203.098 96.8804 201.679 96.8804H198.009C196.603 96.8804 196.016 96.4124 196.016 95.2964V95.2124C196.016 95.0684 196.13 94.9964 196.302 94.9964H197.335C197.521 94.9964 197.621 95.0684 197.621 95.2124V95.2724C197.621 95.6324 197.851 95.7524 198.324 95.7524H201.306C201.794 95.7524 202.023 95.6204 202.023 95.2364V94.7804C202.023 94.4084 201.794 94.2524 201.306 94.2524H198.138C196.732 94.2524 196.159 93.8804 196.159 92.6564V92.1644C196.159 90.9884 196.732 90.5684 198.138 90.5684H201.507C202.883 90.5684 203.471 91.0364 203.471 92.1524V92.2364C203.471 92.3804 203.385 92.4524 203.199 92.4524H202.152C201.98 92.4524 201.88 92.3804 201.88 92.2364V92.1764C201.88 91.8284 201.65 91.6964 201.177 91.6964H198.525C198.037 91.6964 197.808 91.8284 197.808 92.2124Z" fill="#FCFC03"/>
<path d="M192.374 90.5684C193.85 90.5684 194.51 91.0964 194.51 92.2844V95.1644C194.51 96.3524 193.85 96.8804 192.374 96.8804H190.553C189.564 96.8804 188.89 96.6044 188.56 96.0644V99.1004C188.56 99.2564 188.474 99.3284 188.273 99.3284H187.198C186.997 99.3284 186.911 99.2564 186.911 99.1004V90.7964C186.911 90.6404 186.997 90.5684 187.198 90.5684H188.087C188.273 90.5684 188.359 90.6404 188.359 90.7964V91.6484C188.632 90.9404 189.32 90.5684 190.467 90.5684H192.374ZM191.671 95.7404C192.675 95.7404 192.861 95.5964 192.861 94.8884V92.5604C192.861 91.8524 192.675 91.7084 191.671 91.7084H190.123C188.976 91.7084 188.56 92.0684 188.56 92.8844V94.5644C188.56 95.3804 188.976 95.7404 190.123 95.7404H191.671Z" fill="#FCFC03"/>
<path d="M184.946 92.2844V95.1644C184.946 96.3524 184.286 96.8804 182.81 96.8804H179.326C177.849 96.8804 177.189 96.3524 177.189 95.1644V92.2844C177.189 91.0964 177.849 90.5684 179.326 90.5684H182.81C184.286 90.5684 184.946 91.0964 184.946 92.2844ZM183.297 94.8884V92.5604C183.297 91.8524 183.111 91.7084 182.093 91.7084H180.043C179.01 91.7084 178.824 91.8524 178.824 92.5604V94.8884C178.824 95.5964 179.01 95.7404 180.043 95.7404H182.093C183.111 95.7404 183.297 95.5964 183.297 94.8884Z" fill="#FCFC03"/>
<path d="M175.783 91.7084H175.123C173.704 91.7084 173.145 92.2364 173.145 93.2564V96.6524C173.145 96.8084 173.059 96.8804 172.858 96.8804H171.783C171.582 96.8804 171.496 96.8084 171.496 96.6524V90.7964C171.496 90.6404 171.582 90.5684 171.783 90.5684H172.643C172.829 90.5684 172.93 90.6404 172.93 90.7964V91.6964C173.188 90.9524 173.905 90.5684 175.095 90.5684H175.783C175.969 90.5684 176.07 90.6404 176.07 90.7964V91.4804C176.07 91.6364 175.969 91.7084 175.783 91.7084Z" fill="#FCFC03"/>
<path d="M167.855 96.652V95.872C167.554 96.532 166.852 96.88 165.762 96.88H163.855C162.364 96.88 161.719 96.352 161.719 95.164V92.284C161.719 91.096 162.364 90.568 163.855 90.568H165.676C166.665 90.568 167.339 90.856 167.669 91.408V88.228C167.669 88.072 167.769 88 167.941 88H169.045C169.217 88 169.318 88.072 169.318 88.228V96.652C169.318 96.808 169.217 96.88 169.045 96.88H168.142C167.956 96.88 167.855 96.808 167.855 96.652ZM164.572 91.708C163.54 91.708 163.353 91.852 163.353 92.56V94.888C163.353 95.596 163.54 95.74 164.572 95.74H166.106C167.239 95.74 167.669 95.38 167.669 94.564V92.884C167.669 92.068 167.239 91.708 166.106 91.708H164.572Z" fill="#FCFC03"/>
<path d="M160.311 91.7084H159.652C158.232 91.7084 157.673 92.2364 157.673 93.2564V96.6524C157.673 96.8084 157.587 96.8804 157.386 96.8804H156.311C156.11 96.8804 156.024 96.8084 156.024 96.6524V90.7964C156.024 90.6404 156.11 90.5684 156.311 90.5684H157.171C157.358 90.5684 157.458 90.6404 157.458 90.7964V91.6964C157.716 90.9524 158.433 90.5684 159.623 90.5684H160.311C160.498 90.5684 160.598 90.6404 160.598 90.7964V91.4804C160.598 91.6364 160.498 91.7084 160.311 91.7084Z" fill="#FCFC03"/>
<path d="M152.202 89.2363V88.3003C152.202 88.1443 152.288 88.0723 152.489 88.0723H153.564C153.765 88.0723 153.851 88.1443 153.851 88.3003V89.2363C153.851 89.3803 153.765 89.4643 153.564 89.4643H152.489C152.288 89.4643 152.202 89.3803 152.202 89.2363ZM152.202 96.6523V90.7963C152.202 90.6403 152.288 90.5683 152.489 90.5683H153.564C153.765 90.5683 153.851 90.6403 153.851 90.7963V96.6523C153.851 96.8083 153.765 96.8803 153.564 96.8803H152.489C152.288 96.8803 152.202 96.8083 152.202 96.6523Z" fill="#FCFC03"/>
<path d="M149.014 96.6525L148.182 95.1165H142.232L141.401 96.6525C141.315 96.8085 141.2 96.8805 140.971 96.8805H139.709C139.537 96.8805 139.465 96.7725 139.551 96.6285L143.967 88.7085C144.053 88.5525 144.168 88.4805 144.397 88.4805H146.089C146.318 88.4805 146.433 88.5525 146.519 88.7085L150.935 96.6285C151.021 96.7725 150.949 96.8805 150.777 96.8805H149.444C149.2 96.8805 149.1 96.8085 149.014 96.6525ZM145.2 89.6445L142.906 93.8685H147.494L145.2 89.6445Z" fill="#FCFC03"/>
<path d="M130.424 90.7605V90.3165C130.424 89.8725 130.166 89.6565 129.592 89.6565H127.069C126.122 89.6565 125.879 89.8005 125.879 90.4485V90.5805C125.879 91.1685 126.122 91.3605 126.997 91.8045L131.485 94.0125V92.6205C131.485 92.4645 131.585 92.3805 131.771 92.3805H132.818C133.019 92.3805 133.105 92.4645 133.105 92.6205V94.8165L134.409 95.4525C134.596 95.5365 134.682 95.6205 134.682 95.8005V96.7725C134.682 96.8925 134.51 96.9405 134.366 96.8685L132.904 96.1605C132.617 96.6765 132.015 96.8805 130.954 96.8805H125.42C123.814 96.8805 123.126 96.3285 123.126 95.0445V93.9645C123.126 92.7525 123.742 92.2605 125.176 92.2245C124.502 91.8525 124.216 91.4325 124.216 90.5085V90.3165C124.216 89.0325 124.889 88.4805 126.51 88.4805H129.836C131.456 88.4805 132.044 88.9485 132.044 90.2565V90.7605C132.044 90.9165 131.958 91.0005 131.757 91.0005H130.71C130.51 91.0005 130.424 90.9165 130.424 90.7605ZM130.653 95.7165C131.04 95.7165 131.284 95.6205 131.399 95.4165L126.653 93.0765H126.079C125.076 93.0765 124.832 93.2685 124.832 93.9765V94.8165C124.832 95.5245 125.076 95.7165 126.079 95.7165H130.653Z" fill="#FCFC03"/>
<path d="M115.727 96.652V95.872C115.426 96.532 114.724 96.88 113.634 96.88H111.727C110.236 96.88 109.591 96.352 109.591 95.164V92.284C109.591 91.096 110.236 90.568 111.727 90.568H113.548C114.537 90.568 115.211 90.856 115.541 91.408V88.228C115.541 88.072 115.641 88 115.813 88H116.917C117.089 88 117.19 88.072 117.19 88.228V96.652C117.19 96.808 117.089 96.88 116.917 96.88H116.014C115.828 96.88 115.727 96.808 115.727 96.652ZM112.444 91.708C111.412 91.708 111.225 91.852 111.225 92.56V94.888C111.225 95.596 111.412 95.74 112.444 95.74H113.978C115.111 95.74 115.541 95.38 115.541 94.564V92.884C115.541 92.068 115.111 91.708 113.978 91.708H112.444Z" fill="#FCFC03"/>
<path d="M107.661 95.74H108.005C108.177 95.74 108.278 95.812 108.278 95.968V96.652C108.278 96.808 108.177 96.88 108.005 96.88H107.174C105.826 96.88 105.281 96.448 105.281 95.368V88.228C105.281 88.072 105.396 88 105.568 88H106.658C106.844 88 106.93 88.072 106.93 88.228V95.2C106.93 95.608 107.088 95.74 107.661 95.74Z" fill="#FCFC03"/>
<path d="M101.448 96.8804H97.9781C96.5013 96.8804 95.8418 96.3524 95.8418 95.1644V92.2844C95.8418 91.0964 96.5013 90.5684 97.9781 90.5684H101.448C102.81 90.5684 103.441 91.0604 103.441 92.1764V94.0244C103.441 94.1804 103.34 94.2524 103.168 94.2524H97.4763V94.9004C97.4763 95.6084 97.6626 95.7524 98.6949 95.7524H101.147C101.62 95.7524 101.849 95.6324 101.849 95.2724V95.2604C101.849 95.1164 101.935 95.0324 102.136 95.0324H103.168C103.34 95.0324 103.441 95.1164 103.441 95.2604V95.2844C103.441 96.4124 102.853 96.8804 101.448 96.8804ZM97.4763 92.5484V93.1484H101.835V92.2364C101.835 91.8284 101.577 91.6964 101.089 91.6964H98.6949C97.6626 91.6964 97.4763 91.8524 97.4763 92.5484Z" fill="#FCFC03"/>
<path d="M92.2207 89.2363V88.3003C92.2207 88.1443 92.3067 88.0723 92.5074 88.0723H93.5828C93.7835 88.0723 93.8695 88.1443 93.8695 88.3003V89.2363C93.8695 89.3803 93.7835 89.4643 93.5828 89.4643H92.5074C92.3067 89.4643 92.2207 89.3803 92.2207 89.2363ZM92.2207 96.6523V90.7963C92.2207 90.6403 92.3067 90.5683 92.5074 90.5683H93.5828C93.7835 90.5683 93.8695 90.6403 93.8695 90.7963V96.6523C93.8695 96.8083 93.7835 96.8803 93.5828 96.8803H92.5074C92.3067 96.8803 92.2207 96.8083 92.2207 96.6523Z" fill="#FCFC03"/>
<path d="M84.7559 96.6285V93.7125L80.297 88.7325C80.1823 88.6125 80.2396 88.4805 80.4117 88.4805H81.8884C82.1322 88.4805 82.2469 88.5165 82.3616 88.6485L85.6878 92.5245L89.0141 88.6485C89.1288 88.5045 89.2578 88.4805 89.5016 88.4805H90.9066C91.0643 88.4805 91.1217 88.6125 91.0213 88.7325L86.5624 93.7005V96.6285C86.5624 96.7965 86.4477 96.8805 86.247 96.8805H85.057C84.8706 96.8805 84.7559 96.7965 84.7559 96.6285Z" fill="#FCFC03"/>
<path d="M73.1235 96.8804H69.6538C68.1771 96.8804 67.5176 96.3524 67.5176 95.1644V92.2844C67.5176 91.0964 68.1771 90.5684 69.6538 90.5684H73.1235C74.4855 90.5684 75.1164 91.0604 75.1164 92.1764V94.0244C75.1164 94.1804 75.016 94.2524 74.844 94.2524H69.152V94.9004C69.152 95.6084 69.3384 95.7524 70.3707 95.7524H72.8224C73.2955 95.7524 73.5249 95.6324 73.5249 95.2724V95.2604C73.5249 95.1164 73.611 95.0324 73.8117 95.0324H74.844C75.016 95.0324 75.1164 95.1164 75.1164 95.2604V95.2844C75.1164 96.4124 74.5285 96.8804 73.1235 96.8804ZM69.152 92.5484V93.1484H73.5106V92.2364C73.5106 91.8284 73.2525 91.6964 72.7651 91.6964H70.3707C69.3384 91.6964 69.152 91.8524 69.152 92.5484Z" fill="#FCFC03"/>
<path d="M61.0345 96.6764L58.0093 90.7964C57.9519 90.6644 58.0093 90.5684 58.1527 90.5684H59.4143C59.6437 90.5684 59.7441 90.6284 59.8015 90.7724L62.2245 95.7764L64.6618 90.7724C64.7335 90.6284 64.8339 90.5684 65.0489 90.5684H66.2533C66.3967 90.5684 66.454 90.6644 66.3966 90.7964L63.3571 96.6764C63.2854 96.8204 63.1851 96.8804 62.97 96.8804H61.4216C61.2065 96.8804 61.1205 96.8204 61.0345 96.6764Z" fill="#FCFC03"/>
<path d="M55.0469 89.2363V88.3003C55.0469 88.1443 55.1329 88.0723 55.3336 88.0723H56.4089C56.6096 88.0723 56.6957 88.1443 56.6957 88.3003V89.2363C56.6957 89.3803 56.6096 89.4643 56.4089 89.4643H55.3336C55.1329 89.4643 55.0469 89.3803 55.0469 89.2363ZM55.0469 96.6523V90.7963C55.0469 90.6403 55.1329 90.5683 55.3336 90.5683H56.4089C56.6096 90.5683 56.6957 90.6403 56.6957 90.7963V96.6523C56.6957 96.8083 56.6096 96.8803 56.4089 96.8803H55.3336C55.1329 96.8803 55.0469 96.8083 55.0469 96.6523Z" fill="#FCFC03"/>
<path d="M53.1369 91.708H51.2443V94.996C51.2443 95.62 51.4021 95.74 52.0616 95.74H53.1369C53.3233 95.74 53.4093 95.812 53.4093 95.968V96.652C53.4093 96.808 53.3233 96.88 53.1369 96.88H51.6028C50.1834 96.88 49.5955 96.412 49.5955 95.272V91.708H48.7353C48.5632 91.708 48.4629 91.636 48.4629 91.48V90.796C48.4629 90.64 48.5632 90.568 48.7353 90.568H49.5955V89.188C49.5955 89.032 49.6959 88.96 49.868 88.96H50.9576C51.144 88.96 51.2443 89.032 51.2443 89.188V90.568H53.1369C53.3233 90.568 53.4093 90.64 53.4093 90.796V91.48C53.4093 91.636 53.3233 91.708 53.1369 91.708Z" fill="#FCFC03"/>
<path d="M41.447 96.8804C40.0276 96.8804 39.4541 96.4724 39.4541 95.2844V94.7444C39.4541 93.5204 40.0276 93.1484 41.447 93.1484H45.3324V92.5484C45.3324 91.8524 45.146 91.6964 44.1281 91.6964H42.0062C41.5474 91.6964 41.3036 91.8164 41.3036 92.1764V92.2364C41.3036 92.3804 41.2176 92.4524 41.0312 92.4524H39.9989C39.8125 92.4524 39.7122 92.3804 39.7122 92.2364V92.1644C39.7122 91.0364 40.3 90.5684 41.7051 90.5684H44.845C46.3074 90.5684 46.9812 91.0964 46.9812 92.2844V95.4644C46.9812 95.6564 47.0816 95.7404 47.3253 95.7404H47.4113C47.5977 95.7404 47.6838 95.8124 47.6838 95.9684V96.6524C47.6838 96.8084 47.5977 96.8804 47.4113 96.8804H46.7232C45.8486 96.8804 45.5045 96.5084 45.5045 95.9204V95.8364C45.2177 96.5204 44.5152 96.8804 43.3969 96.8804H41.447ZM43.7697 95.7524C44.9023 95.7524 45.3324 95.3804 45.3324 94.5764V94.2524H41.8341C41.361 94.2524 41.1172 94.3724 41.1172 94.7564V95.2364C41.1172 95.6204 41.3323 95.7524 41.8341 95.7524H43.7697Z" fill="#FCFC03"/>
<path d="M37.3183 96.8805H35.2108C34.9814 96.8805 34.881 96.8325 34.7663 96.6885L29.017 89.7165V96.6285C29.017 96.7965 28.9023 96.8805 28.7016 96.8805H27.6263C27.4256 96.8805 27.3252 96.7965 27.3252 96.6285V88.7325C27.3252 88.5645 27.4256 88.4805 27.6263 88.4805H29.7339C29.9489 88.4805 30.0493 88.5285 30.164 88.6725L35.9276 95.6565V88.7325C35.9276 88.5645 36.0423 88.4805 36.243 88.4805H37.3183C37.5191 88.4805 37.6194 88.5645 37.6194 88.7325V96.6285C37.6194 96.7965 37.5191 96.8805 37.3183 96.8805Z" fill="#FCFC03"/>
</svg>
